<?xml version="1.0" encoding="UTF-8"?>
<svg version="1.1" xmlns="http://www.w3.org/2000/svg" width="2000" height="556">
<path d="M0 0 C1.28132812 0.01675781 2.56265625 0.03351563 3.8828125 0.05078125 C15.96370535 0.37442843 27.32301662 3.04165213 39 6 C40.46092196 6.35943815 41.92185818 6.71881837 43.3828125 7.078125 C50.51986586 8.89482949 57.2503093 11.07069569 64 14 C65.06605469 14.43054688 66.13210938 14.86109375 67.23046875 15.3046875 C89.17044403 24.31444428 109.5694703 37.88644597 126 55 C127.2065625 56.2065625 127.2065625 56.2065625 128.4375 57.4375 C129.283125 58.283125 130.12875 59.12875 131 60 C131.598125 60.54011719 132.19625 61.08023438 132.8125 61.63671875 C165.13308358 91.87785302 182.65023444 139.72395978 184.109375 183.26367188 C184.97363161 220.96686633 178.17163193 257.10011021 159 290 C158.6596875 290.59103516 158.319375 291.18207031 157.96875 291.79101562 C153.21154502 299.99533594 147.79378982 307.51492636 142 315 C141.45988281 315.77214844 140.91976563 316.54429687 140.36328125 317.33984375 C139.91339844 317.88769531 139.46351563 318.43554688 139 319 C138.34 319 137.68 319 137 319 C136.690625 319.79664063 136.690625 319.79664063 136.375 320.609375 C134.42038808 324.00773436 131.77876283 326.51055928 129 329.25 C128.4534375 329.80429687 127.906875 330.35859375 127.34375 330.9296875 C123.2533867 335 123.2533867 335 121 335 C120.67 335.99 120.34 336.98 120 338 C119.34 338 118.68 338 118 338 C118 338.66 118 339.32 118 340 C111.42913371 346.12941274 103.47896742 351.03933126 96 356 C94.91460937 356.721875 93.82921875 357.44375 92.7109375 358.1875 C57.27723299 380.9539354 11.98998579 390.73173201 -29.6875 385.375 C-30.36408661 385.28830048 -31.04067322 385.20160095 -31.73776245 385.11227417 C-44.46146745 383.45339222 -56.73536146 380.78843322 -69 377 C-69.68288086 376.79262207 -70.36576172 376.58524414 -71.06933594 376.37158203 C-80.90331413 373.32289648 -89.94054278 368.81534804 -99 364 C-99.66821777 363.64921387 -100.33643555 363.29842773 -101.02490234 362.93701172 C-108.87452111 358.79093919 -116.31345494 354.28276103 -123.5 349.0625 C-124.15363525 348.58965576 -124.80727051 348.11681152 -125.48071289 347.62963867 C-127.02885911 346.47361952 -128.52093339 345.24318098 -130 344 C-130 343.34 -130 342.68 -130 342 C-130.99 342 -131.98 342 -133 342 C-133 341.34 -133 340.68 -133 340 C-133.53625 339.773125 -134.0725 339.54625 -134.625 339.3125 C-140.24976976 336.20407461 -144.21155345 331.7688926 -148.3203125 326.9296875 C-149.79505487 325.23544859 -151.31442432 323.67471633 -152.9375 322.125 C-155 320 -155 320 -155 318 C-155.66 318 -156.32 318 -157 318 C-158.63139937 316.07412421 -160.13723225 314.15673283 -161.625 312.125 C-162.04523438 311.56941406 -162.46546875 311.01382812 -162.8984375 310.44140625 C-166 306.26235288 -166 306.26235288 -166 304 C-166.66 304 -167.32 304 -168 304 C-168.515625 303.0925 -169.03125 302.185 -169.5625 301.25 C-170.87197449 298.95267633 -172.19700672 296.6668342 -173.54296875 294.390625 C-186.79658063 271.94743783 -186.79658063 271.94743783 -189.3515625 263.1875 C-190.41993039 259.58336737 -191.80665474 256.09398512 -193.1328125 252.578125 C-193.98083865 250.05696618 -194.49741865 247.60843873 -195 245 C-195.46364807 243.49513085 -195.94338602 241.99514283 -196.4375 240.5 C-201.09586158 225.18421609 -201.20461672 208.870221 -201.24023438 192.99365234 C-201.24990533 190.40038533 -201.28101505 187.80792491 -201.3125 185.21484375 C-201.38325427 173.84156787 -200.23506355 163.14529235 -198 152 C-197.81276367 151.03980957 -197.62552734 150.07961914 -197.43261719 149.09033203 C-196.22277452 143.0697944 -194.32957673 137.24084328 -192 131.5625 C-191.05401651 129.13841731 -190.37682192 126.75697527 -189.6875 124.25 C-188.43197823 120.01106015 -186.7635571 116.48603309 -184.5234375 112.69140625 C-182.13844284 108.47791568 -180.05335794 104.11541172 -177.94262695 99.75927734 C-175.90431803 95.61140775 -173.64186245 91.80690738 -171 88 C-170.29875 86.906875 -169.5975 85.81375 -168.875 84.6875 C-167 82 -167 82 -165 81 C-164.32241721 79.67218082 -163.65845188 78.33740919 -163 77 C-157.69894158 69.25574763 -151.80722952 62.46019429 -145 56 C-144.13375 55.113125 -143.2675 54.22625 -142.375 53.3125 C-133.83783784 45 -133.83783784 45 -131 45 C-131 44.34 -131 43.68 -131 43 C-129.1590771 41.40334196 -127.3288668 39.94576905 -125.375 38.5 C-124.33085937 37.7059375 -123.28671875 36.911875 -122.2109375 36.09375 C-119.14869985 34.09696243 -116.50563042 32.96852252 -113 32 C-113 31.34 -113 30.68 -113 30 C-112.01 30 -111.02 30 -110 30 C-110 29.34 -110 28.68 -110 28 C-109.01 28 -108.02 28 -107 28 C-107 27.34 -107 26.68 -107 26 C-103.64692897 24.39353605 -100.29234852 22.79024823 -96.9375 21.1875 C-95.52307617 20.50977539 -95.52307617 20.50977539 -94.08007812 19.81835938 C-87.17440427 16.52192273 -80.35863156 13.35043164 -73.0625 11 C-69.62156381 9.88009282 -66.23246009 8.72343225 -62.875 7.375 C-59.15472513 5.95005 -55.4124318 5.18443874 -51.5 4.46875 C-49.16344137 4.03064526 -46.87205394 3.49839167 -44.5625 2.9375 C-39.40798585 1.7860553 -34.26048826 1.37431683 -29 1 C-27.83082031 0.9071875 -26.66164063 0.814375 -25.45703125 0.71875 C-16.95253356 0.08421753 -8.52589067 -0.19252011 0 0 Z M-16.75 86.5 C-17.73484375 86.5928125 -18.7196875 86.685625 -19.734375 86.78125 C-20.48203125 86.8534375 -21.2296875 86.925625 -22 87 C-22.8410478 90.6464806 -23.11764968 93.99950907 -23.09765625 97.73828125 C-23.09443359 98.80498047 -23.09121094 99.87167969 -23.08789062 100.97070312 C-23.07951172 102.07349609 -23.07113281 103.17628906 -23.0625 104.3125 C-23.05798828 105.43462891 -23.05347656 106.55675781 -23.04882812 107.71289062 C-23.03707313 110.4753151 -23.02064077 113.23762998 -23 116 C-19.94152152 116.54372951 -17.11227195 117 -14 117 C-14 120.3 -14 123.6 -14 127 C-18.455 127.495 -18.455 127.495 -23 128 C-23 130.31 -23 132.62 -23 135 C-20.36 135 -17.72 135 -15 135 C-14.505 138.96 -14.505 138.96 -14 143 C-16.64 143 -19.28 143 -22 143 C-22.38063221 145.3260857 -22.71269945 147.66055264 -23 150 C-21.50256881 151.49743119 -20.01175761 151.33202693 -17.9375 151.5625 C-16.638125 151.706875 -15.33875 151.85125 -14 152 C-13.505 155.465 -13.505 155.465 -13 159 C-41.71 159 -70.42 159 -100 159 C-85.15522166 129.31044332 -70.9427453 115.47614388 -41 103 C-41 114.88 -41 126.76 -41 139 C-40.34 139 -39.68 139 -39 139 C-39.66 140.65 -40.32 142.3 -41 144 C-50.57 144 -60.14 144 -70 144 C-70 142.68 -70 141.36 -70 140 C-69.34 140 -68.68 140 -68 140 C-67.34 139.01 -66.68 138.02 -66 137 C-62.73215948 134.38572759 -61.43857035 133.96405161 -57.1875 134.3125 C-56.135625 134.539375 -55.08375 134.76625 -54 135 C-52.81318274 131.43954823 -52.90310168 128.56191663 -52.9375 124.8125 C-52.94652344 123.54019531 -52.95554687 122.26789063 -52.96484375 120.95703125 C-52.97644531 119.98121094 -52.98804688 119.00539062 -53 118 C-56.07745908 119.21465217 -59.06176804 120.47647232 -62 122 C-62 122.66 -62 123.32 -62 124 C-62.58652344 124.27199219 -63.17304688 124.54398438 -63.77734375 124.82421875 C-70.31811606 128.28427581 -75.18118859 134.14686609 -79.9375 139.6875 C-80.42226807 140.24606689 -80.90703613 140.80463379 -81.40649414 141.38012695 C-83.71876224 144.13219956 -85.58307061 146.35408553 -86 150 C-83.16933735 150.94355422 -81.43157094 151.12647372 -78.50024414 151.12939453 C-77.59242691 151.13254669 -76.68460968 151.13569885 -75.74928284 151.13894653 C-74.77112106 151.1369223 -73.79295929 151.13489807 -72.78515625 151.1328125 C-71.27422646 151.13424759 -71.27422646 151.13424759 -69.73277283 151.13571167 C-67.60187721 151.13639235 -65.47097952 151.13454585 -63.34008789 151.13037109 C-60.07889133 151.12502686 -56.81783286 151.13031701 -53.55664062 151.13671875 C-51.48697886 151.13605784 -49.41731719 151.13477641 -47.34765625 151.1328125 C-46.37151871 151.13483673 -45.39538116 151.13686096 -44.3896637 151.13894653 C-43.47869431 151.13579437 -42.56772491 151.13264221 -41.62915039 151.12939453 C-40.82989639 151.12859894 -40.0306424 151.12780334 -39.20716858 151.12698364 C-36.67141834 151.04989696 -36.67141834 151.04989696 -33 150 C-33 130.2 -33 110.4 -33 90 C-41.51698 91.41949667 -46.79455919 92.34334665 -54 96 C-55.26465131 96.59971385 -56.53037498 97.19716901 -57.796875 97.79296875 C-65.55551057 101.49033664 -72.50525765 105.29173036 -79 111 C-79.721875 111.58007812 -80.44375 112.16015625 -81.1875 112.7578125 C-94.55447128 123.85054214 -103.34113632 139.24450964 -110 155.0625 C-110.30317139 155.77696289 -110.60634277 156.49142578 -110.91870117 157.22753906 C-112.51903369 161.18865579 -113 163.61726328 -113 168 C-97.82 168 -82.64 168 -67 168 C-66.505 173.445 -66.505 173.445 -66 179 C-82.17 179 -98.34 179 -115 179 C-116.27057455 184.08229819 -116.22316018 188.84551094 -116.25 194.0625 C-116.2809375 195.57166992 -116.2809375 195.57166992 -116.3125 197.11132812 C-116.31765625 198.07619141 -116.3228125 199.04105469 -116.328125 200.03515625 C-116.3374707 200.9156665 -116.34681641 201.79617676 -116.35644531 202.70336914 C-115.91545755 205.54471977 -115.2420645 206.24779947 -113 208 C-110.84568256 208.43277601 -110.84568256 208.43277601 -108.43676758 208.34057617 C-107.51603958 208.34034958 -106.59531158 208.34012299 -105.64668274 208.33988953 C-104.65597275 208.32440567 -103.66526276 208.30892181 -102.64453125 208.29296875 C-101.11937141 208.28660149 -101.11937141 208.28660149 -99.56340027 208.28010559 C-96.31283188 208.26329997 -93.0628813 208.22564382 -89.8125 208.1875 C-87.61003499 208.17245562 -85.40756027 208.15876679 -83.20507812 208.14648438 C-77.80314702 208.11339019 -72.40167829 208.06159448 -67 208 C-66.505 213.445 -66.505 213.445 -66 219 C-81.51 219 -97.02 219 -113 219 C-112.12853172 225.27283391 -112.12853172 225.27283391 -110.1796875 230.92578125 C-109.81278809 231.80008789 -109.44588867 232.67439453 -109.06787109 233.57519531 C-108.67422363 234.47850586 -108.28057617 235.38181641 -107.875 236.3125 C-107.46975098 237.24803711 -107.06450195 238.18357422 -106.64697266 239.14746094 C-103.74397812 245.68462533 -100.51921064 251.43378547 -96 257 C-95.50628906 257.70253906 -95.01257813 258.40507812 -94.50390625 259.12890625 C-80.97795535 277.98428419 -59.50569527 291.69153134 -37 297 C-35.68 296.67 -34.36 296.34 -33 296 C-33 276.2 -33 256.4 -33 236 C-50.49 236 -67.98 236 -86 236 C-84.74646003 239.13384992 -83.53924548 242.03145514 -82 245 C-81.34 245 -80.68 245 -80 245 C-79.73832031 245.74894531 -79.47664063 246.49789062 -79.20703125 247.26953125 C-76.13799594 254.21210628 -69.04162998 258.91414243 -63.1875 263.5 C-62.62442139 263.94561279 -62.06134277 264.39122559 -61.48120117 264.8503418 C-58.13573637 267.46340943 -58.13573637 267.46340943 -54 268 C-52.93276039 264.53777385 -52.89826514 261.35960734 -52.9375 257.75 C-52.94652344 256.67234375 -52.95554687 255.5946875 -52.96484375 254.484375 C-52.97644531 253.66453125 -52.98804688 252.8446875 -53 252 C-55.33965843 251.24796693 -56.62958914 250.88823193 -59.01953125 251.609375 C-61 252 -61 252 -62.88671875 250.890625 C-63.77810547 250.07851563 -63.77810547 250.07851563 -64.6875 249.25 C-65.28949219 248.71890625 -65.89148438 248.1878125 -66.51171875 247.640625 C-68 246 -68 246 -69 243 C-68.15405273 243.00785522 -68.15405273 243.00785522 -67.29101562 243.01586914 C-64.69402211 243.03687267 -62.09704656 243.04973362 -59.5 243.0625 C-58.613125 243.07087891 -57.72625 243.07925781 -56.8125 243.08789062 C-55.9359375 243.09111328 -55.059375 243.09433594 -54.15625 243.09765625 C-53.36025391 243.10289307 -52.56425781 243.10812988 -51.74414062 243.11352539 C-48.14665466 242.96469701 -44.57275918 242.4465949 -41 242 C-41 255.2 -41 268.4 -41 282 C-47.66431551 280.00070535 -53.12044817 278.35819134 -59 275 C-59.83144531 274.52949219 -60.66289062 274.05898438 -61.51953125 273.57421875 C-76.80254549 264.41315585 -88.55097995 251.57637605 -96.296875 235.57421875 C-96.65700684 234.84182983 -97.01713867 234.10944092 -97.38818359 233.3548584 C-98.26379809 231.57235745 -99.13262295 229.78652384 -100 228 C-71.32858752 227.3079695 -42.68016731 226.83307567 -14 227 C-13.67 229.64 -13.34 232.28 -13 235 C-13.63808594 234.98839844 -14.27617187 234.97679687 -14.93359375 234.96484375 C-15.75988281 234.95582031 -16.58617187 234.94679688 -17.4375 234.9375 C-18.67306641 234.92009766 -18.67306641 234.92009766 -19.93359375 234.90234375 C-21.99163938 234.76732652 -21.99163938 234.76732652 -23 236 C-23.04080783 237.99958364 -23.04254356 240.00045254 -23 242 C-20.03 242.66 -17.06 243.32 -14 244 C-14 245.98 -14 247.96 -14 250 C-16.97 250.33 -19.94 250.66 -23 251 C-23 253.64 -23 256.28 -23 259 C-20.03 259.33 -17.06 259.66 -14 260 C-13.67 263.3 -13.34 266.6 -13 270 C-15.97 270 -18.94 270 -22 270 C-23.05838127 276.00860549 -23.11662571 281.84627561 -23.0625 287.9375 C-23.05798828 288.90751953 -23.05347656 289.87753906 -23.04882812 290.87695312 C-23.0371315 293.2513676 -23.02074086 295.62565021 -23 298 C-18.24645997 299.2894425 -14.01714296 300.27718597 -9.0625 300.25 C-7.65677734 300.25773437 -7.65677734 300.25773437 -6.22265625 300.265625 C-2.04011075 299.92088186 1.92951587 298.99398834 6 298 C6.02886338 293.52084672 6.04675187 289.04171709 6.0625 284.5625 C6.07506836 282.6434082 6.07506836 282.6434082 6.08789062 280.68554688 C6.09272461 278.86313477 6.09272461 278.86313477 6.09765625 277.00390625 C6.10551147 275.31503296 6.10551147 275.31503296 6.11352539 273.59204102 C6.29545448 271.07029129 6.29545448 271.07029129 5 270 C2.32941149 269.85884839 -0.32432238 269.95752893 -3 270 C-3.16733157 268.5209084 -3.33384686 267.04172444 -3.5 265.5625 C-3.5928125 264.73878906 -3.685625 263.91507813 -3.78125 263.06640625 C-4 261 -4 261 -4 260 C-0.7 259.67 2.6 259.34 6 259 C6.6878236 256.64632287 6.6878236 256.64632287 7 254 C5.39519216 250.87393036 5.39519216 250.87393036 3.0546875 250.48828125 C2.33539063 250.43027344 1.61609375 250.37226563 0.875 250.3125 C-1.043125 250.1578125 -1.043125 250.1578125 -3 250 C-4.125 246.25 -4.125 246.25 -3 244 C-0.93359375 243.5859375 -0.93359375 243.5859375 1.5625 243.375 C2.80193359 243.26285156 2.80193359 243.26285156 4.06640625 243.1484375 C4.70449219 243.09945312 5.34257812 243.05046875 6 243 C6 240.69 6 238.38 6 236 C3.71294169 234.85647084 2.40735238 234.89665561 -0.125 234.9375 C-2.043125 234.9684375 -2.043125 234.9684375 -4 235 C-4 232.69 -4 230.38 -4 228 C-0.27501593 226.75833864 3.17302965 226.86847455 7.05151367 226.88647461 C7.87125168 226.88632858 8.69098969 226.88618256 9.53556824 226.8860321 C12.24639528 226.88672904 14.9571537 226.89451122 17.66796875 226.90234375 C19.54698143 226.90420871 21.4259946 226.90563224 23.30500793 226.90663147 C28.25175315 226.91045052 33.19846902 226.92027562 38.14520264 226.93133545 C43.19250085 226.9415627 48.23980379 226.94613191 53.28710938 226.95117188 C63.19141914 226.96189841 73.09570713 226.97896752 83 227 C81.73660332 229.73930278 80.46762782 232.47578035 79.1953125 235.2109375 C78.83993408 235.98300537 78.48455566 236.75507324 78.1184082 237.55053711 C75.62635893 242.89227762 72.92365894 247.57006249 69 252 C67.8742424 253.29100643 66.74922889 254.58266212 65.625 255.875 C65.12226563 256.42929687 64.61953125 256.98359375 64.1015625 257.5546875 C62.79794242 258.96223736 62.79794242 258.96223736 63 261 C62.42765625 261.268125 61.8553125 261.53625 61.265625 261.8125 C58.92115366 263.04132636 56.87595062 264.42522176 54.75 266 C54.04359375 266.515625 53.3371875 267.03125 52.609375 267.5625 C52.07828125 268.036875 51.5471875 268.51125 51 269 C51 269.66 51 270.32 51 271 C50.484375 271.0825 49.96875 271.165 49.4375 271.25 C45.95544268 272.32140225 43.12799115 274.13523605 40 276 C40 276.66 40 277.32 40 278 C39.01 278 38.02 278 37 278 C37 278.66 37 279.32 37 280 C36.34 279.938125 35.68 279.87625 35 279.8125 C31.04785059 279.91292244 31.04785059 279.91292244 24 283 C24 269.8 24 256.6 24 243 C33.24 243 42.48 243 52 243 C47.94550818 249.08173773 46.93568117 250.03215941 41 253 C40.01 252.34 39.02 251.68 38 251 C37.01 251 36.02 251 35 251 C35.33 256.94 35.66 262.88 36 269 C36.66 269 37.32 269 38 269 C38 268.34 38 267.68 38 267 C38.53753906 266.92265625 39.07507813 266.8453125 39.62890625 266.765625 C42.91988178 265.70297063 45.19184267 263.8412699 47.9375 261.75 C48.95714844 260.98171875 49.97679687 260.2134375 51.02734375 259.421875 C58.15080002 253.61827068 65.86942731 246.23248165 68 237 C65.07081707 236.02360569 63.20974262 235.87863819 60.16137695 235.88647461 C59.1805867 235.88655014 58.19979645 235.88662567 57.18928528 235.88670349 C55.60478828 235.89444542 55.60478828 235.89444542 53.98828125 235.90234375 C52.90491989 235.9037587 51.82155853 235.90517365 50.70536804 235.90663147 C47.24105075 235.91223441 43.7767978 235.92478742 40.3125 235.9375 C37.96549572 235.94251462 35.61849044 235.94707759 33.27148438 235.95117188 C27.51430092 235.96220479 21.75715506 235.9789458 16 236 C15.219938 241.16607097 14.84426097 246.15595259 14.875 251.375 C14.87693359 252.19774414 14.87886719 253.02048828 14.88085938 253.86816406 C14.97119507 267.9153643 15.52480879 281.96163844 16 296 C19.95586431 297.97793215 24.99370711 295.29380281 29 294 C39.64249478 290.08853763 50.10880189 285.11295849 59 278 C59 277.34 59 276.68 59 276 C61.475 275.01 61.475 275.01 64 274 C64 273.34 64 272.68 64 272 C64.598125 271.731875 65.19625 271.46375 65.8125 271.1875 C67.99847854 270.00082594 69.41332594 268.90400887 71 267 C71 266.34 71 265.68 71 265 C71.5775 264.79375 72.155 264.5875 72.75 264.375 C75.22240356 262.86408672 76.36859858 261.25842418 77.875 258.81640625 C78.67174669 257.52999233 79.50973365 256.26870599 80.375 255.02734375 C87.03862279 245.46573918 96 231.09376578 96 219 C80.49 218.67 64.98 218.34 49 218 C49 214.37 49 210.74 49 207 C49.80904785 207.0714624 50.6180957 207.1429248 51.45166016 207.21655273 C61.11505198 207.99673773 70.68695917 208.1189745 80.375 208.0625 C81.90104017 208.05746731 83.42708198 208.05290758 84.953125 208.04882812 C88.63545154 208.03798019 92.31771469 208.02081654 96 208 C99.48556271 200.1836207 99.48556271 200.1836207 98 179 C73.745 178.505 73.745 178.505 49 178 C49 175.03 49 172.06 49 169 C64.33755339 168.38374438 79.64862389 167.81724552 95 168 C96.81732846 164.36534307 94.61481703 160.53808481 93.4296875 156.84375 C87.48928017 140.15198137 77.46664543 122.54959692 63 112 C62.34 112 61.68 112 61 112 C60.64615234 111.11054688 60.64615234 111.11054688 60.28515625 110.203125 C55.28456504 101.63068293 38.19109666 95.07305218 28.77099609 92.35742188 C24.54851108 91.34004607 20.30246774 90.6012182 16 90 C15.34116436 103.59899847 14.88325827 117.19319893 14.82275391 130.80807495 C14.81593684 132.18222146 14.80570192 133.55635541 14.79199219 134.93045044 C14.77412041 136.86762816 14.77152239 138.80492837 14.76953125 140.7421875 C14.76542236 141.8544873 14.76131348 142.96678711 14.75708008 144.11279297 C14.99994406 146.99933519 15.64665016 148.49954983 17 151 C24.08413941 151.02529271 31.16826723 151.04284261 38.25244141 151.05493164 C40.66390417 151.05996974 43.07536386 151.06680034 45.48681641 151.07543945 C48.94694779 151.08752787 52.4070389 151.09323344 55.8671875 151.09765625 C56.95055389 151.10281754 58.03392029 151.10797882 59.15011597 151.11329651 C60.1510025 151.11337204 61.15188904 151.11344757 62.18310547 151.11352539 C63.06690887 151.115746 63.95071228 151.11796661 64.86129761 151.12025452 C67.05276775 151.13873944 67.05276775 151.13873944 69 150 C67.70127848 145.18626046 65.87520666 142.27416824 62.5 138.625 C61.30890625 137.31402344 61.30890625 137.31402344 60.09375 135.9765625 C58.23750182 133.77117861 58.23750182 133.77117861 56 134 C55.79375 133.46375 55.5875 132.9275 55.375 132.375 C53.47418297 129.09177059 51.02358811 126.30808253 48 124 C47.01 124 46.02 124 45 124 C45 123.34 45 122.68 45 122 C42.03 120.35 39.06 118.7 36 117 C35.67 122.28 35.34 127.56 35 133 C36.32 133.66 37.64 134.32 39 135 C39.99 134.34 40.98 133.68 42 133 C48.75 137.25 48.75 137.25 51 144 C42.09 143.67 33.18 143.34 24 143 C24 129.8 24 116.6 24 103 C39.78787879 109.76623377 39.78787879 109.76623377 45.375 113.5 C45.95386963 113.88599365 46.53273926 114.2719873 47.12915039 114.66967773 C48.76181488 115.76643469 50.38142398 116.88255613 52 118 C52.79535156 118.53753906 53.59070313 119.07507813 54.41015625 119.62890625 C59.38399949 123.14605551 63.17055143 127.28750506 67 132 C67.56460938 132.64324219 68.12921875 133.28648437 68.7109375 133.94921875 C74.53932386 140.87207585 78.15110165 148.87976325 82 157 C82.33 157.66 82.66 158.32 83 159 C53.96 159 24.92 159 -5 159 C-4.67 156.69 -4.34 154.38 -4 152 C0.95 151.505 0.95 151.505 6 151 C6 148.69 6 146.38 6 144 C2.7 143.34 -0.6 142.68 -4 142 C-4 139.69 -4 137.38 -4 135 C-0.7 135 2.6 135 6 135 C6.33 132.69 6.66 130.38 7 128 C2.9472484 127.01751476 -0.83861737 126.91840426 -5 127 C-4.835 125.906875 -4.67 124.81375 -4.5 123.6875 C-3.93281816 120.12474127 -3.93281816 120.12474127 -4 117 C-0.7 116.67 2.6 116.34 6 116 C6 106.43 6 96.86 6 87 C-5.49266922 86.06572492 -5.49266922 86.06572492 -16.75 86.5 Z " fill="#FDFCFD" transform="translate(313,69)"/>
<path d="M0 0 C1.01746307 -0.00744736 1.01746307 -0.00744736 2.05548096 -0.01504517 C4.31548058 -0.02972607 6.57540958 -0.03648532 8.83544922 -0.04199219 C10.41234335 -0.04774725 11.98923748 -0.05350494 13.56613159 -0.05926514 C16.88686448 -0.06979763 20.20757306 -0.07562277 23.52832031 -0.07910156 C27.74305022 -0.08453292 31.95744823 -0.10843403 36.17207527 -0.13707352 C39.4393296 -0.15590626 42.70650814 -0.16091673 45.9738121 -0.16243744 C47.52444104 -0.16542804 49.07506983 -0.17333185 50.62564468 -0.18662262 C65.42224891 -0.30419469 83.16170988 0.24529319 94.51904297 11.07128906 C95.91809846 12.71307225 97.22634744 14.43144194 98.51513672 16.16113281 C99.17513672 16.49113281 99.83513672 16.82113281 100.51513672 17.16113281 C101.55029297 19.05175781 101.55029297 19.05175781 102.57763672 21.41113281 C103.09003906 22.56355469 103.09003906 22.56355469 103.61279297 23.73925781 C106.85331171 32.436754 107.0811883 44.40156751 103.64013672 53.08691406 C101.44496438 57.13426307 98.74113368 60.87294796 95.51513672 64.16113281 C94.85513672 64.16113281 94.19513672 64.16113281 93.51513672 64.16113281 C93.51513672 64.82113281 93.51513672 65.48113281 93.51513672 66.16113281 C91.53513672 66.82113281 89.55513672 67.48113281 87.51513672 68.16113281 C87.51513672 68.82113281 87.51513672 69.48113281 87.51513672 70.16113281 C86.85513672 70.16113281 86.19513672 70.16113281 85.51513672 70.16113281 C85.51513672 70.82113281 85.51513672 71.48113281 85.51513672 72.16113281 C86.93826172 72.62519531 86.93826172 72.62519531 88.39013672 73.09863281 C91.51513672 74.16113281 91.51513672 74.16113281 93.51513672 75.16113281 C93.51513672 75.82113281 93.51513672 76.48113281 93.51513672 77.16113281 C95.49513672 77.65613281 95.49513672 77.65613281 97.51513672 78.16113281 C97.51513672 78.82113281 97.51513672 79.48113281 97.51513672 80.16113281 C98.17513672 80.16113281 98.83513672 80.16113281 99.51513672 80.16113281 C107.55342859 90.52375004 110.38452337 99.40833822 109.09326172 112.34082031 C108.35928765 117.1910003 107.04272463 120.98396121 104.51513672 125.16113281 C104.15806641 125.77859375 103.80099609 126.39605469 103.43310547 127.03222656 C102.39013672 128.72363281 102.39013672 128.72363281 100.51513672 131.16113281 C99.85513672 131.16113281 99.19513672 131.16113281 98.51513672 131.16113281 C98.26892578 131.75796875 98.02271484 132.35480469 97.76904297 132.96972656 C94.4523979 138.76610626 87.06081859 141.65228777 80.94873047 143.61816406 C74.06991654 145.15292351 67.16484142 145.35085736 60.14794922 145.47753906 C58.670457 145.50884666 58.670457 145.50884666 57.16311646 145.54078674 C53.98886342 145.60643264 50.81453584 145.66551271 47.64013672 145.72363281 C46.56421265 145.74447937 45.48828857 145.76532593 44.37976074 145.7868042 C31.84248586 146.0296258 19.30497813 146.2554116 6.76513672 146.28613281 C5.74564941 146.2907251 4.72616211 146.29531738 3.67578125 146.30004883 C2.7616748 146.29803467 1.84756836 146.29602051 0.90576172 146.29394531 C-0.23844238 146.29225342 -0.23844238 146.29225342 -1.40576172 146.29052734 C-3.54334371 146.15749324 -5.41864667 145.70464509 -7.48486328 145.16113281 C-7.50819116 126.40313783 -7.52584191 107.64514578 -7.53667545 88.88713932 C-7.54183865 80.17809121 -7.54888179 71.4690521 -7.56030273 62.76000977 C-7.57024886 55.1719954 -7.57671654 47.58398755 -7.57895178 39.99596685 C-7.58025901 35.97566162 -7.58334562 31.95537503 -7.59059334 27.93507576 C-7.59735243 24.15539298 -7.59948047 20.37573661 -7.59797096 16.59604836 C-7.59824734 15.20482998 -7.60025313 13.81361078 -7.60406876 12.42239761 C-7.60900419 10.53099955 -7.60726126 8.63958749 -7.6051178 6.7481842 C-7.60603959 5.68720048 -7.60696138 4.62621675 -7.60791111 3.53308201 C-7.35958336 -1.25384361 -4.10151755 0.0227387 0 0 Z M29.51513672 30.16113281 C28.15813025 32.87514575 28.40275062 35.00959598 28.41748047 38.04394531 C28.42070313 39.21054688 28.42392578 40.37714844 28.42724609 41.57910156 C28.435625 42.80242187 28.44400391 44.02574219 28.45263672 45.28613281 C28.45714844 46.5171875 28.46166016 47.74824219 28.46630859 49.01660156 C28.47812342 52.06482673 28.49459644 55.11295595 28.51513672 58.16113281 C34.78944141 59.35513014 40.72229302 59.15261392 47.07763672 58.91113281 C48.20105469 58.8840625 49.32447266 58.85699219 50.48193359 58.82910156 C51.56667969 58.78914063 52.65142578 58.74917969 53.76904297 58.70800781 C54.75203369 58.67545898 55.73502441 58.64291016 56.74780273 58.609375 C61.36551648 57.86141537 63.87818693 55.95732004 66.76513672 52.34863281 C69.17496079 47.9593104 69.93101713 45.01369102 68.82763672 40.09863281 C66.84055508 35.65135487 64.56341499 32.85998499 60.51513672 30.16113281 C57.21486032 29.88367631 57.21486032 29.88367631 53.44091797 29.96582031 C52.41516914 29.97006516 52.41516914 29.97006516 51.36869812 29.97439575 C49.18816507 29.98557598 47.00804527 30.0106759 44.82763672 30.03613281 C43.34782495 30.04616543 41.86800673 30.05529079 40.38818359 30.06347656 C36.76370072 30.085508 33.13945906 30.1200228 29.51513672 30.16113281 Z M29.51513672 85.16113281 C29.34786235 89.41506048 29.18726913 93.6691709 29.03295898 97.92358398 C28.97947435 99.37189582 28.92414013 100.82014056 28.86694336 102.26831055 C28.7852116 104.34571863 28.71005904 106.42327451 28.63623047 108.50097656 C28.58909912 109.75257568 28.54196777 111.0041748 28.4934082 112.29370117 C28.17898299 115.05888854 28.17898299 115.05888854 29.51513672 116.16113281 C33.6628378 116.40500655 37.81423493 116.38973193 41.96850586 116.40136719 C44.04501821 116.41098178 46.12050149 116.44194528 48.19677734 116.47363281 C55.25363253 116.5286022 61.10305663 116.29702784 67.51513672 113.16113281 C67.51513672 112.50113281 67.51513672 111.84113281 67.51513672 111.16113281 C68.17513672 111.16113281 68.83513672 111.16113281 69.51513672 111.16113281 C72.19374509 105.16105005 73.07223953 101.59715775 71.51513672 95.16113281 C69.20936326 90.79663306 67.0725848 88.12912176 62.51513672 86.16113281 C55.51881465 84.97338511 48.59632616 85.04590918 41.51513672 85.09863281 C40.35884766 85.10314453 39.20255859 85.10765625 38.01123047 85.11230469 C35.17914447 85.12400752 32.34716861 85.14040285 29.51513672 85.16113281 Z " fill="#FCFCFC" transform="translate(1193.48486328125,206.8388671875)"/>
<path d="M0 0 C2.21357101 0.08393849 4.42700048 0.1454099 6.64135742 0.20458984 C8.05351147 0.25143927 9.46562371 0.29957034 10.87768555 0.34912109 C12.15168213 0.39327148 13.42567871 0.43742188 14.73828125 0.48291016 C17.8894043 0.83349609 17.8894043 0.83349609 20.8894043 2.83349609 C22.14331055 5.54443359 22.14331055 5.54443359 23.4519043 9.20849609 C23.69948486 9.89331055 23.94706543 10.578125 24.20214844 11.28369141 C24.77476158 12.87316593 25.3423149 14.46446837 25.90600586 16.05712891 C27.01270376 19.18159975 28.13422509 22.30055778 29.2565918 25.41943359 C32.81106989 35.31636308 36.33927623 45.22159403 39.77856445 55.15917969 C42.02867484 61.65935678 44.34947028 68.09026608 46.9519043 74.45849609 C49.71514578 81.23501687 52.03643834 88.108137 54.31518555 95.06005859 C55.99825997 100.18953017 57.74427146 105.29597636 59.5144043 110.39599609 C59.9300061 111.60872192 59.9300061 111.60872192 60.35400391 112.84594727 C61.72414491 116.77866173 63.19781646 120.5991206 64.9284668 124.38818359 C66.8585075 128.63492299 68.30842477 132.93009938 69.6394043 137.39599609 C69.85983398 138.11851562 70.08026367 138.84103516 70.30737305 139.58544922 C70.83981651 141.33325275 71.36537475 143.08315149 71.8894043 144.83349609 C69.8894043 146.83349609 69.8894043 146.83349609 66.78833008 147.07641602 C65.4836377 147.07230713 64.17894531 147.06819824 62.8347168 147.06396484 C61.78778152 147.06327751 61.78778152 147.06327751 60.71969604 147.06257629 C59.24190575 147.05955357 57.76411865 147.05166664 56.28637695 147.03930664 C54.03023918 147.02112371 51.77451374 147.0187965 49.51831055 147.01904297 C36.64256278 146.97494979 36.64256278 146.97494979 33.8894043 145.83349609 C32.65750483 143.47210445 31.71899496 141.31980809 30.8269043 138.83349609 C30.58391602 138.19798828 30.34092773 137.56248047 30.09057617 136.90771484 C28.73771395 133.32639789 27.50405603 129.70872379 26.29785156 126.07568359 C26.03263199 125.27759277 25.76741241 124.47950195 25.49415588 123.65722656 C25.29458786 123.05539551 25.09501984 122.45356445 24.8894043 121.83349609 C17.68183475 121.5894266 10.47383449 121.37691283 3.26464844 121.18652344 C0.81130845 121.11798259 -1.64183934 121.04216627 -4.09472656 120.95898438 C-7.6166938 120.84080233 -11.13851925 120.74863669 -14.66137695 120.66162109 C-15.76145584 120.61910217 -16.86153473 120.57658325 -17.99494934 120.53277588 C-19.0157811 120.512453 -20.03661285 120.49213013 -21.08837891 120.47119141 C-21.98772659 120.44454407 -22.88707428 120.41789673 -23.81367493 120.39044189 C-26.26679889 120.63022499 -26.26679889 120.63022499 -27.87394714 122.71917725 C-29.17647467 124.94613047 -29.88751647 126.90548929 -30.5480957 129.39599609 C-31.64494343 133.27537333 -32.83575859 137.09201497 -34.1730957 140.89599609 C-34.49407227 141.81509766 -34.81504883 142.73419922 -35.14575195 143.68115234 C-36.1105957 145.83349609 -36.1105957 145.83349609 -38.1105957 146.83349609 C-40.38756761 146.93140256 -42.66745826 146.96427293 -44.9465332 146.96630859 C-45.62229401 146.96726532 -46.29805481 146.96822205 -46.99429321 146.96920776 C-48.42498874 146.96988859 -49.85568735 146.9680411 -51.28637695 146.96386719 C-53.47004197 146.95853408 -55.65349974 146.96380682 -57.8371582 146.97021484 C-59.22778366 146.96955372 -60.61840898 146.96827185 -62.0090332 146.96630859 C-63.27408691 146.96518066 -64.53914063 146.96405273 -65.8425293 146.96289062 C-68.48322063 146.85833613 -70.61024182 146.62353574 -73.1105957 145.83349609 C-72.69671606 139.85199064 -71.59592953 134.74496585 -69.2355957 129.20849609 C-66.05077173 121.36574278 -63.1601586 113.4464197 -60.3605957 105.45849609 C-54.37405872 88.41766567 -48.14947125 71.46451919 -41.92407227 54.50976562 C-37.72904722 43.07350316 -33.59533736 31.62094211 -29.60351562 20.11206055 C-24.31290117 4.87854424 -24.31290117 4.87854424 -22.1105957 1.83349609 C-15.18717326 -1.18484325 -7.40970257 -0.2872557 0 0 Z M-1.1105957 43.83349609 C-4.80547319 50.5390145 -7.13144085 57.558302 -9.46069336 64.82373047 C-10.31548542 67.46709945 -11.20294654 70.09895923 -12.09057617 72.73144531 C-14.22383842 79.06340691 -16.25306602 85.41520247 -18.1105957 91.83349609 C-14.24852496 92.74166407 -10.67910915 92.94993455 -6.71606445 92.93115234 C-5.51401367 92.92792969 -4.31196289 92.92470703 -3.07348633 92.92138672 C-1.82760742 92.91300781 -0.58172852 92.90462891 0.7019043 92.89599609 C1.96711914 92.89148438 3.23233398 92.88697266 4.53588867 92.88232422 C7.6537754 92.87055861 10.77156563 92.85411882 13.8894043 92.83349609 C15.53782347 88.7697597 14.14301044 85.89065739 12.72143555 81.89990234 C12.36730843 80.88922951 12.36730843 80.88922951 12.00602722 79.85813904 C11.24794808 77.70041908 10.47558515 75.54816539 9.7019043 73.39599609 C8.70433104 70.58623456 7.7124917 67.7744682 6.72143555 64.96240234 C6.35829758 63.93682724 6.35829758 63.93682724 5.98782349 62.89053345 C3.77131199 56.59207561 1.78792818 50.23539879 -0.1105957 43.83349609 C-0.4405957 43.83349609 -0.7705957 43.83349609 -1.1105957 43.83349609 Z " fill="#FCFBFB" transform="translate(1773.110595703125,206.16650390625)"/>
<path d="M0 0 C3.82721919 3.1722417 7.57997651 6.38491814 11 10 C11 10.66 11 11.32 11 12 C11.66 12 12.32 12 13 12 C17.9003027 18.34866803 21.48244764 25.40673725 24 33 C24.23976563 33.71285156 24.47953125 34.42570312 24.7265625 35.16015625 C24.86191406 36.07087891 24.86191406 36.07087891 25 37 C22.34712033 39.65287967 20.95716678 39.31669884 17.25 39.44921875 C15.50009766 39.51399414 15.50009766 39.51399414 13.71484375 39.58007812 C12.48894531 39.61552734 11.26304687 39.65097656 10 39.6875 C8.20755859 39.75807617 8.20755859 39.75807617 6.37890625 39.83007812 C-9.62595079 40.36474202 -9.62595079 40.36474202 -14 39 C-17 35.73965232 -17 35.73965232 -17 33 C-17.5775 32.7525 -18.155 32.505 -18.75 32.25 C-21 31 -21 31 -22.8125 29.125 C-29.62830828 22.5039291 -36.8419297 21.73916867 -45.92993164 21.75341797 C-51.27885261 21.84201042 -55.36847793 22.34620848 -60 25 C-61.11955078 25.58587891 -61.11955078 25.58587891 -62.26171875 26.18359375 C-68.63023315 29.89943769 -71.80545196 34.44655417 -75 41 C-75.32871094 41.63679688 -75.65742187 42.27359375 -75.99609375 42.9296875 C-80.4159187 52.7844168 -80.46922064 67.10465936 -76.8515625 77.20703125 C-75.98603315 79.27579649 -75.09014232 81.3322765 -74.15625 83.37109375 C-73.17563409 85.60066979 -72.49410448 87.62492962 -72 90 C-71.34 90 -70.68 90 -70 90 C-68.33333333 91.66666667 -66.66666667 93.33333333 -65 95 C-57.78828325 100.42684265 -49.22431451 102.3176208 -40.2734375 101.7734375 C-35.77858608 101.09362927 -31.39959545 100.1340246 -27 99 C-27 98.34 -27 97.68 -27 97 C-26.01 97 -25.02 97 -24 97 C-24 96.34 -24 95.68 -24 95 C-21.625 92.375 -21.625 92.375 -19 90 C-18.34 90 -17.68 90 -17 90 C-16.690625 89.195625 -16.38125 88.39125 -16.0625 87.5625 C-15 85 -15 85 -14 84 C-11.1883662 83.91138008 -8.40141745 83.88477645 -5.58984375 83.90234375 C-4.74780899 83.9037587 -3.90577423 83.90517365 -3.03822327 83.90663147 C-0.33794665 83.91224737 2.36224828 83.92480252 5.0625 83.9375 C6.88867068 83.94251295 8.71484266 83.94707621 10.54101562 83.95117188 C15.02737542 83.96222196 19.51367384 83.97949721 24 84 C25.75245831 89.25737494 22.99522576 93.93637012 20.671875 98.75390625 C12.03697969 115.09203712 -0.48892766 125.83461314 -17.96875 132.140625 C-39.90042677 138.35836841 -62.69822365 136.48070935 -82.8125 125.875 C-87.16039624 123.31741398 -91.42268817 120.58677562 -95 117 C-95 116.34 -95 115.68 -95 115 C-95.66 115 -96.32 115 -97 115 C-112.09999467 98.88815001 -117.68871703 78.37337909 -117.2578125 56.8046875 C-116.86464889 46.85645665 -114.43230592 37.31625893 -111 28 C-110.34 28 -109.68 28 -109 28 C-108.79375 27.030625 -108.5875 26.06125 -108.375 25.0625 C-106.99072851 20.16739501 -104.24545967 15.8892601 -101 12 C-100.34 12 -99.68 12 -99 12 C-99 11.34 -99 10.68 -99 10 C-97.125 7.875 -97.125 7.875 -95 6 C-94.34 6 -93.68 6 -93 6 C-93 5.34 -93 4.68 -93 4 C-67.97023841 -17.14216032 -26.62073622 -19.61749975 0 0 Z " fill="#FCFBFB" transform="translate(675,218)"/>
<path d="M0 0 C11.80373952 -0.50284989 23.21935025 2.08904188 32.46875 9.796875 C34.00424668 11.24530743 35.50522915 12.72068509 36.984375 14.2265625 C37.01015625 13.45570313 37.0359375 12.68484375 37.0625 11.890625 C37.14757812 10.38628906 37.14757812 10.38628906 37.234375 8.8515625 C37.28078125 7.85382813 37.3271875 6.85609375 37.375 5.828125 C37.984375 3.2265625 37.984375 3.2265625 39.65576172 2.07836914 C42.51156658 1.03371584 44.8110738 0.98396604 47.8515625 0.99609375 C48.98464844 0.99802734 50.11773438 0.99996094 51.28515625 1.00195312 C53.05439453 1.02032227 53.05439453 1.02032227 54.859375 1.0390625 C56.61701172 1.0400293 56.61701172 1.0400293 58.41015625 1.04101562 C63.73414455 1.06820966 68.73847111 1.24521922 73.984375 2.2265625 C75.00095422 8.11615542 75.13864444 13.84258098 75.14550781 19.81176758 C75.15295517 21.37393005 75.15295517 21.37393005 75.16055298 22.96765137 C75.17509538 26.39380564 75.18195996 29.81991376 75.1875 33.24609375 C75.19325378 35.63026429 75.19901149 38.01443482 75.20477295 40.39860535 C75.21525739 45.38577489 75.22111817 50.37292842 75.22460938 55.36010742 C75.23011791 61.76409108 75.25420675 68.16786467 75.28258133 74.57178211 C75.3011507 79.48982884 75.30641004 84.4078241 75.30794525 89.32590294 C75.3109804 91.68831226 75.31903771 94.05072049 75.33213043 96.41309547 C75.34908695 99.70500711 75.34733728 102.99639314 75.34082031 106.28833008 C75.3500351 107.27067123 75.35924988 108.25301239 75.3687439 109.26512146 C75.36317474 110.15806915 75.35760559 111.05101685 75.35186768 111.97102356 C75.35406752 113.13820278 75.35406752 113.13820278 75.3563118 114.32896137 C75.23357265 114.95516974 75.11083351 115.58137812 74.984375 116.2265625 C71.25364421 118.71371636 69.37435276 118.46308878 64.921875 118.4140625 C64.23029297 118.40761719 63.53871094 118.40117187 62.82617188 118.39453125 C54.53422234 118.2761805 46.25800443 117.76281626 37.984375 117.2265625 C37.654375 113.2665625 37.324375 109.3065625 36.984375 105.2265625 C35.06625 106.9590625 35.06625 106.9590625 33.109375 108.7265625 C29.234375 112.2265625 29.234375 112.2265625 26.984375 112.2265625 C26.984375 112.8865625 26.984375 113.5465625 26.984375 114.2265625 C25.27860158 114.87912706 23.56961411 115.52329291 21.859375 116.1640625 C20.43238281 116.70353516 20.43238281 116.70353516 18.9765625 117.25390625 C5.92600493 121.49618933 -7.23228626 119.60490854 -19.546875 114.09375 C-29.48556273 108.95422313 -35.5917568 101.91204143 -41.015625 92.2265625 C-41.61890625 91.18242187 -41.61890625 91.18242187 -42.234375 90.1171875 C-50.28783596 74.37633199 -49.94596884 52.67834143 -45.015625 36.2265625 C-42.07080528 28.72908606 -38.17879063 21.42236125 -33.015625 15.2265625 C-32.355625 15.2265625 -31.695625 15.2265625 -31.015625 15.2265625 C-31.015625 14.5665625 -31.015625 13.9065625 -31.015625 13.2265625 C-30.355625 13.2265625 -29.695625 13.2265625 -29.015625 13.2265625 C-29.015625 12.5665625 -29.015625 11.9065625 -29.015625 11.2265625 C-20.57901477 4.09416255 -10.84157073 0.81452215 0 0 Z M-6.5703125 42.12890625 C-11.53896445 49.34016597 -11.76031983 59.03921406 -10.453125 67.4765625 C-8.89861332 73.9256853 -5.27586518 78.90523475 -0.703125 83.6015625 C6.33342909 87.85622311 11.99954104 88.8536844 20.12109375 87.140625 C27.44425054 84.8028096 31.91705671 79.87551401 35.86328125 73.4375 C37.46974099 70.26935989 37.86387535 67.78130209 37.984375 64.2265625 C38.04496094 63.3190625 38.10554687 62.4115625 38.16796875 61.4765625 C38.50844645 53.3876378 37.39877809 46.70585368 32.40625 40.15625 C26.7806297 34.09983895 21.69892924 32.0899457 13.546875 31.7890625 C4.17896748 32.05733018 -0.57209999 35.11239255 -6.5703125 42.12890625 Z " fill="#FCFBFC" transform="translate(949.015625,234.7734375)"/>
<path d="M0 0 C2.89004185 2.48166637 5.64978686 4.99310966 8 8 C8 8.66 8 9.32 8 10 C9.485 10.495 9.485 10.495 11 11 C12.33221599 13.32618561 13.46777664 15.56571194 14.5625 18 C14.86607422 18.63550781 15.16964844 19.27101563 15.48242188 19.92578125 C19.51329676 28.69008002 20.30846769 36.92445235 20.1875 46.5 C20.1865332 48.00046875 20.1865332 48.00046875 20.18554688 49.53125 C20.14074248 56.85925752 20.14074248 56.85925752 19 58 C16.56603981 58.09498646 14.16057048 58.12558417 11.72631836 58.11352539 C10.58493156 58.11374443 10.58493156 58.11374443 9.42048645 58.1139679 C6.89357702 58.11326862 4.36674038 58.10547555 1.83984375 58.09765625 C0.0924941 58.09579212 -1.65485607 58.0943682 -3.40220642 58.09336853 C-8.01031934 58.08954293 -12.61840095 58.07971229 -17.22650146 58.06866455 C-21.92508521 58.05845134 -26.62367399 58.0538711 -31.32226562 58.04882812 C-40.54819087 58.03809005 -49.77409284 58.02101313 -59 58 C-58.55566474 59.59715412 -58.10202651 61.19172185 -57.64453125 62.78515625 C-57.26711792 64.11752319 -57.26711792 64.11752319 -56.88208008 65.47680664 C-55.22395103 70.21989099 -52.61936183 73.03162626 -48.26953125 75.6328125 C-42.64660581 77.98409554 -36.98775567 77.64002139 -31 77 C-26.38924035 74.85361189 -24.03284809 72.00769212 -21 68 C-17.82709287 66.41354643 -14.41174616 66.87921787 -10.9296875 66.90234375 C-10.13345978 66.9037587 -9.33723206 66.90517365 -8.51687622 66.90663147 C-5.9695462 66.91223655 -3.42230353 66.92478986 -0.875 66.9375 C0.85025915 66.94251435 2.57551967 66.94707737 4.30078125 66.95117188 C8.53388791 66.96220763 12.76692914 66.97947564 17 67 C15.56411173 78.25897435 10.18396124 87.22056917 2 95 C-1.2095255 97.24976386 -4.56394505 99.12222119 -8 101 C-9.6396875 102.0828125 -9.6396875 102.0828125 -11.3125 103.1875 C-23.1038031 109.71092926 -40.7029401 109.939186 -53.64453125 106.75390625 C-68.59489438 101.96879832 -80.80379395 94.53639229 -88.65234375 80.66015625 C-96.91344986 64.35345114 -98.58342021 44.57314132 -93.67333984 26.95703125 C-91.60490436 20.94521875 -88.24669715 15.43686815 -85 10 C-84.34 10 -83.68 10 -83 10 C-82.74992187 9.41992188 -82.49984375 8.83984375 -82.2421875 8.2421875 C-77.20813856 -0.84442914 -66.22985364 -6.0133439 -56.75390625 -9.03515625 C-37.42510957 -13.83942363 -16.35279126 -12.02268825 0 0 Z M-53.52734375 24.28515625 C-56.95408121 28.27544204 -59 31.58684952 -59 37 C-53.19760386 37.04934656 -47.39532919 37.08569402 -41.59277344 37.10986328 C-39.61781691 37.11993627 -37.64287534 37.13359521 -35.66796875 37.15087891 C-32.83329582 37.17507039 -29.99881962 37.18646991 -27.1640625 37.1953125 C-26.27756012 37.20563507 -25.39105774 37.21595764 -24.47769165 37.22659302 C-22.31714048 37.2269907 -20.15706282 37.12272534 -18 37 C-17.34 36.34 -16.68 35.68 -16 35 C-17.58920815 28.48424659 -21.19950282 24.27067339 -26.3125 20.125 C-35.44927146 16.30030497 -46.29037765 17.28771149 -53.52734375 24.28515625 Z " fill="#FCFBFB" transform="translate(1555,246)"/>
<path d="M0 0 C2.5625 2.25 2.5625 2.25 4 4 C4 4.66 4 5.32 4 6 C4.66 6 5.32 6 6 6 C9.48499328 9.97646669 13 14.61259895 13 20 C13.66 20 14.32 20 15 20 C18.58311374 31.30387074 18.98519138 43.21949944 18 55 C16.30331793 56.69668207 14.18867982 56.11968993 11.92559814 56.12442017 C11.19983582 56.12082489 10.47407349 56.11722961 9.72631836 56.11352539 C8.58493156 56.11374443 8.58493156 56.11374443 7.42048645 56.1139679 C4.89357702 56.11326862 2.36674038 56.10547555 -0.16015625 56.09765625 C-1.9075059 56.09579212 -3.65485607 56.0943682 -5.40220642 56.09336853 C-10.01031934 56.08954293 -14.61840095 56.07971229 -19.22650146 56.06866455 C-23.92508521 56.05845134 -28.62367399 56.0538711 -33.32226562 56.04882812 C-42.54819087 56.03809005 -51.77409284 56.02101313 -61 56 C-60.5539937 57.59705723 -60.09914372 59.19164629 -59.640625 60.78515625 C-59.26212402 62.11752319 -59.26212402 62.11752319 -58.87597656 63.47680664 C-57.10974136 68.56433195 -54.4185358 71.23819374 -49.625 73.8125 C-42.08478148 76.28257158 -36.21038026 76.5398572 -29 73 C-27.11760797 71.29154563 -25.64707812 69.57765997 -24.15625 67.5234375 C-23 66 -23 66 -21 65 C-18.30106819 64.91324462 -15.62830769 64.88442103 -12.9296875 64.90234375 C-12.13345978 64.9037587 -11.33723206 64.90517365 -10.51687622 64.90663147 C-7.9695462 64.91223655 -5.42230353 64.92478986 -2.875 64.9375 C-1.14974085 64.94251435 0.57551967 64.94707737 2.30078125 64.95117188 C6.53388791 64.96220763 10.76692914 64.97947564 15 65 C16.16421658 68.65302651 15.65241501 70.45421528 13.95605469 73.92333984 C13.64055664 74.5261377 13.32505859 75.12893555 13 75.75 C12.67676758 76.37471191 12.35353516 76.99942383 12.02050781 77.64306641 C5.25169628 90.30909809 -6.36387404 99.46598812 -20 104 C-37.93403332 109.07443097 -55.07019256 106.60966181 -71.6875 98.3125 C-77.25796446 95.13863071 -82.07311509 91.09040636 -86 86 C-86 85.01 -86 84.02 -86 83 C-86.66 83 -87.32 83 -88 83 C-89.69089112 79.67836803 -91.35093173 76.3425725 -93 73 C-93.556875 71.88625 -94.11375 70.7725 -94.6875 69.625 C-100.75663318 52.86263216 -99.39964693 32.79095388 -91.9375 16.6875 C-83.47755005 1.10057541 -71.46972035 -6.58204481 -55 -12 C-36.06732974 -17.13702145 -15.33960649 -11.41266723 0 0 Z M-57.8125 24.8125 C-60.57573125 28.33385458 -60.57573125 28.33385458 -61 35 C-47.14 35 -33.28 35 -19 35 C-18.93994434 28.37773519 -18.93994434 28.37773519 -22 23 C-33.39765395 13.06180174 -47.16646527 14.16646527 -57.8125 24.8125 Z " fill="#FCFBFB" transform="translate(872,248)"/>
<path d="M0 0 C11.42797159 -0.46379755 21.92454735 1.89252764 30.84375 9.15234375 C31.52953125 9.631875 32.2153125 10.11140625 32.921875 10.60546875 C40.5888178 16.39957056 46.07617244 26.99744278 47.53100586 36.50561523 C49.43562805 52.62427966 48.96559163 68.93447511 48.91241455 85.13336182 C48.90202825 88.64033394 48.89758475 92.14731367 48.89257812 95.65429688 C48.88197947 102.48699731 48.86500226 109.31966833 48.84375 116.15234375 C45.19496192 118.13223707 42.64831692 118.39805549 38.46875 118.3828125 C37.23640625 118.38087891 36.0040625 118.37894531 34.734375 118.37695312 C33.45046875 118.36470703 32.1665625 118.35246094 30.84375 118.33984375 C29.55984375 118.33919922 28.2759375 118.33855469 26.953125 118.33789062 C16.56262419 118.28898136 16.56262419 118.28898136 12.84375 117.15234375 C11.94157251 113.29979525 11.71941799 109.72935495 11.71777344 105.77661133 C11.71396667 104.50791702 11.71015991 103.23922272 11.70623779 101.93208313 C11.70604393 101.25872736 11.70585007 100.58537159 11.70565033 99.8916111 C11.70220706 97.0354549 11.68080685 94.17952073 11.66041946 91.32344341 C11.6225713 86.01662402 11.59112698 80.71004632 11.59326172 75.40307617 C11.59405402 71.70112308 11.57046936 67.99999196 11.5313797 64.29825401 C11.520998 62.89705805 11.51933731 61.4957663 11.52703094 60.09455299 C11.56971136 51.45733619 11.01438729 44.33215903 5.84375 37.15234375 C0.5829158 32.20879137 -5.17138473 31.78668527 -12.08203125 31.88671875 C-17.59588422 32.36313807 -21.03712332 34.04249115 -24.94140625 37.9296875 C-34.28259632 49.78836142 -30.23642286 71.99656793 -30.15625 86.21484375 C-30.12963627 90.99739351 -30.10969022 95.77990415 -30.09375 100.5625 C-30.08545166 101.65208511 -30.07715332 102.74167023 -30.06860352 103.86427307 C-30.06364868 105.38757484 -30.06364868 105.38757484 -30.05859375 106.94165039 C-30.05335693 107.82985977 -30.04812012 108.71806915 -30.04272461 109.63319397 C-30.16107753 112.25946745 -30.45480929 114.61717862 -31.15625 117.15234375 C-33.98146914 118.56495332 -36.3633861 118.28212045 -39.51953125 118.28515625 C-40.79892578 118.28644531 -42.07832031 118.28773438 -43.39648438 118.2890625 C-44.06510498 118.28696777 -44.73372559 118.28487305 -45.42260742 118.28271484 C-47.45043519 118.27739183 -49.47803875 118.28264925 -51.50585938 118.2890625 C-52.78912109 118.28777344 -54.07238281 118.28648437 -55.39453125 118.28515625 C-56.57055908 118.28402832 -57.74658691 118.28290039 -58.95825195 118.28173828 C-61.82588042 118.16571087 -64.36067338 117.75021559 -67.15625 117.15234375 C-67.22626803 102.32316752 -67.27920273 87.4940131 -67.31168652 72.66470528 C-67.32716885 65.77950649 -67.34828424 58.89441029 -67.38256836 52.00927734 C-67.41561354 45.36980284 -67.43308313 38.73040721 -67.44088173 32.09084702 C-67.44644221 29.55259392 -67.45729979 27.01434694 -67.47344017 24.47613907 C-67.49508888 20.93204176 -67.49822216 17.38839062 -67.49682617 13.84423828 C-67.507612 12.78544464 -67.51839783 11.726651 -67.5295105 10.63577271 C-67.52538651 9.67380981 -67.52126251 8.71184692 -67.51701355 7.72073364 C-67.51977893 6.88190203 -67.52254431 6.04307041 -67.52539349 5.17881966 C-67.40357614 4.51008261 -67.28175879 3.84134556 -67.15625 3.15234375 C-63.56180817 0.7560492 -61.00763348 0.89453044 -56.86328125 0.95703125 C-55.80423836 0.96127609 -55.80423836 0.96127609 -54.72380066 0.96560669 C-52.47194367 0.97678911 -50.22048648 1.00188955 -47.96875 1.02734375 C-46.44076096 1.03737608 -44.91276567 1.04650149 -43.38476562 1.0546875 C-39.64177337 1.07672203 -35.89907944 1.11123808 -32.15625 1.15234375 C-29.87478675 5.46265148 -29.99452561 8.30061198 -30.15625 13.15234375 C-29.56199219 12.70503906 -28.96773437 12.25773438 -28.35546875 11.796875 C-19.43372611 5.28941419 -11.12297122 0.7858621 0 0 Z " fill="#FCFCFC" transform="translate(1115.15625,234.84765625)"/>
<path d="M0 0 C7.64111844 7.28626774 13.45017285 15.53664336 13.85546875 26.5546875 C13.82066406 27.25851562 13.78585937 27.96234375 13.75 28.6875 C9.36900434 30.87799783 3.32944363 29.60569958 -1.53564453 29.44555664 C-3.74104855 29.37528522 -5.94647507 29.32098958 -8.15234375 29.26757812 C-9.54950933 29.22493546 -10.94664645 29.18134741 -12.34375 29.13671875 C-13.61927734 29.09893311 -14.89480469 29.06114746 -16.20898438 29.0222168 C-19.25 28.6875 -19.25 28.6875 -21.25 26.6875 C-21.4975 25.90375 -21.745 25.12 -22 24.3125 C-23.75684213 20.62313152 -25.62207783 19.53444219 -29.25 17.6875 C-35.02676629 16.23805682 -39.72569451 16.54542236 -45.25 18.6875 C-47.51298437 20.55713998 -47.51298437 20.55713998 -47.6875 23.5 C-47.23369627 26.8062843 -46.57796727 28.17453649 -44.17358398 30.44555664 C-39.68958046 33.34061007 -34.18665457 34.24187424 -29.0625 35.5 C-27.86173828 35.81130859 -26.66097656 36.12261719 -25.42382812 36.44335938 C-19.90598283 38.03580215 -19.90598283 38.03580215 -14.25 38.6875 C-14.25 39.3475 -14.25 40.0075 -14.25 40.6875 C-12.8578125 40.7184375 -12.8578125 40.7184375 -11.4375 40.75 C-2.36270622 42.02527652 5.48447688 49.58227093 10.9375 56.4375 C15.25438203 64.17811605 15.36303299 72.07321743 13.75 80.6875 C12.27192445 85.08299977 10.3177895 88.83581575 7.75 92.6875 C7.09 92.6875 6.43 92.6875 5.75 92.6875 C5.75 93.3475 5.75 94.0075 5.75 94.6875 C0.56541986 99.38979361 -4.48531946 102.62156839 -11.1875 104.8125 C-12.68603516 105.31136719 -12.68603516 105.31136719 -14.21484375 105.8203125 C-30.42932378 110.45302108 -49.19516564 108.54803311 -64.1875 100.9375 C-74.11482744 95.01698544 -81.27513272 87.66570486 -85.25 76.6875 C-85.85752799 73.94366455 -86.10591486 71.52117447 -86.25 68.6875 C-84.25 66.6875 -84.25 66.6875 -80.90185547 66.55224609 C-79.47328097 66.59458942 -78.04501414 66.64825453 -76.6171875 66.7109375 C-75.86535187 66.73596344 -75.11351624 66.76098938 -74.33889771 66.78677368 C-71.93381161 66.86905089 -69.52953743 66.96560861 -67.125 67.0625 C-65.49612709 67.1207318 -63.8672207 67.17803525 -62.23828125 67.234375 C-58.24171918 67.37464078 -54.24582746 67.52771743 -50.25 67.6875 C-49.5480957 69.43310547 -48.84619141 71.17871094 -48.14428711 72.92431641 C-46.74806115 75.67712664 -44.81920829 77.05824596 -42.25 78.6875 C-36.81333365 80.4194338 -30.74514926 80.31128732 -25.25 78.9375 C-22.80413068 77.40883168 -22.11226599 76.43107361 -21.25 73.6875 C-20.83320703 71.14519153 -20.83320703 71.14519153 -21.25 68.6875 C-23.33228106 66.11498681 -25.17103237 65.15689609 -28.3203125 64.2578125 C-29.52917114 63.90481079 -29.52917114 63.90481079 -30.76245117 63.54467773 C-31.62459229 63.30305908 -32.4867334 63.06144043 -33.375 62.8125 C-34.70785034 62.42396851 -34.70785034 62.42396851 -36.06762695 62.02758789 C-40.38112689 60.77314973 -44.70521109 59.55953419 -49.03515625 58.36328125 C-60.73755636 55.09716893 -72.97148125 51.11880697 -79.625 40.125 C-83.38145631 32.17865012 -83.61562358 22.12283853 -81 13.75 C-77.15771095 4.05615148 -69.57936483 -3.32858599 -60.078125 -7.57421875 C-59.47484375 -7.81785156 -58.8715625 -8.06148437 -58.25 -8.3125 C-57.280625 -8.704375 -56.31125 -9.09625 -55.3125 -9.5 C-37.20377011 -14.30435691 -14.50582301 -12.56460258 0 0 Z " fill="#FCFBFB" transform="translate(1673.25,246.3125)"/>
<path d="M0 0 C4.96622349 -0.02465098 9.93241166 -0.04283649 14.89868164 -0.05493164 C16.58944316 -0.0599719 18.28020029 -0.06680405 19.97094727 -0.07543945 C22.39600707 -0.08751857 24.82100944 -0.09323123 27.24609375 -0.09765625 C28.38672523 -0.10539818 28.38672523 -0.10539818 29.55039978 -0.11329651 C31.3673257 -0.11349238 33.18413127 -0.06197277 35 0 C36.77490546 1.77490546 36.23499973 4.37784902 36.31640625 6.78515625 C36.35830078 7.95498047 36.40019531 9.12480469 36.44335938 10.33007812 C36.48267578 11.56177734 36.52199219 12.79347656 36.5625 14.0625 C36.60568359 15.29806641 36.64886719 16.53363281 36.69335938 17.80664062 C36.79984198 20.87097335 36.90185424 23.93539073 37 27 C42.38206707 27.66080189 47.53389909 28.08679877 52.95703125 27.83984375 C55 28 55 28 59 30 C59 39.57 59 49.14 59 59 C55.6457361 59.83856598 53.77205901 60.08073332 50.453125 59.87890625 C49.60878906 59.83056641 48.76445313 59.78222656 47.89453125 59.73242188 C47.02183594 59.67634766 46.14914062 59.62027344 45.25 59.5625 C43.91775391 59.48418945 43.91775391 59.48418945 42.55859375 59.40429688 C40.37200804 59.27498267 38.18592106 59.14003358 36 59 C36.11764672 65.90523576 36.24247735 72.8103148 36.37231445 79.71533203 C36.41563886 82.0645859 36.45731573 84.41387075 36.49731445 86.76318359 C36.55507715 90.1390924 36.61875468 93.51484561 36.68359375 96.890625 C36.70866249 98.46738007 36.70866249 98.46738007 36.73423767 100.07598877 C36.7641555 101.54706085 36.7641555 101.54706085 36.79467773 103.04785156 C36.81799416 104.3402475 36.81799416 104.3402475 36.84178162 105.65875244 C36.99267792 107.89165105 37.38162272 109.85420545 38 112 C39.09699219 112.06058594 40.19398437 112.12117188 41.32421875 112.18359375 C42.77865654 112.26804498 44.23308305 112.35269066 45.6875 112.4375 C46.40873047 112.47681641 47.12996094 112.51613281 47.87304688 112.55664062 C51.66707282 112.78185678 55.28651492 113.12839305 59 114 C60.58084368 123.74853602 60.94663024 134.26684881 59 144 C49.98112151 148.50943924 31.19219823 144.7288285 22.08984375 142.1875 C13.25025526 138.98764896 7.02871323 133.51194795 3 125 C0.38923263 116.96491258 -0.5072979 109.15727041 -0.6875 100.75 C-0.72020996 99.64188965 -0.75291992 98.5337793 -0.78662109 97.39208984 C-0.99869338 89.47135824 -1.09402076 81.548396 -1.125 73.625 C-1.12975342 72.6153418 -1.13450684 71.60568359 -1.1394043 70.56542969 C-1.137229 69.62860352 -1.13505371 68.69177734 -1.1328125 67.7265625 C-1.13112061 66.49800537 -1.13112061 66.49800537 -1.12939453 65.24462891 C-1.00234032 63.04059798 -0.61054361 61.1165916 0 59 C-1.26457031 59.03480469 -1.26457031 59.03480469 -2.5546875 59.0703125 C-4.19824219 59.09738281 -4.19824219 59.09738281 -5.875 59.125 C-6.96554687 59.14820313 -8.05609375 59.17140625 -9.1796875 59.1953125 C-12 59 -12 59 -14 57 C-14.25878906 54.32617188 -14.25878906 54.32617188 -14.265625 50.96875 C-14.26820312 49.76605469 -14.27078125 48.56335938 -14.2734375 47.32421875 C-14.26570313 46.06222656 -14.25796875 44.80023438 -14.25 43.5 C-14.25773437 42.23800781 -14.26546875 40.97601563 -14.2734375 39.67578125 C-14.27085938 38.47308594 -14.26828125 37.27039063 -14.265625 36.03125 C-14.26336914 34.92330078 -14.26111328 33.81535156 -14.25878906 32.67382812 C-14 30 -14 30 -12 28 C-9.3984375 27.8046875 -9.3984375 27.8046875 -6.375 27.875 C-4.87066406 27.90207031 -4.87066406 27.90207031 -3.3359375 27.9296875 C-2.56507812 27.95289063 -1.79421875 27.97609375 -1 28 C-1.00523682 27.22285645 -1.01047363 26.44571289 -1.01586914 25.64501953 C-1.03660156 22.13835451 -1.04964821 18.63170237 -1.0625 15.125 C-1.07087891 13.90167969 -1.07925781 12.67835938 -1.08789062 11.41796875 C-1.09272461 9.66806641 -1.09272461 9.66806641 -1.09765625 7.8828125 C-1.10289307 6.80402832 -1.10812988 5.72524414 -1.11352539 4.61376953 C-1 2 -1 2 0 0 Z " fill="#FCFCFC" transform="translate(1389,208)"/>
<path d="M0 0 C0.70523804 0.00091141 1.41047607 0.00182281 2.13708496 0.00276184 C2.8619812 -0.00152328 3.58687744 -0.00580841 4.33374023 -0.01022339 C5.86697342 -0.01596858 7.40023386 -0.01646555 8.93347168 -0.01213074 C11.2843654 -0.00896897 13.63400304 -0.03243152 15.98474121 -0.05778503 C17.47302087 -0.06005778 18.96130392 -0.06076164 20.44958496 -0.05973816 C21.50744202 -0.07355278 21.50744202 -0.07355278 22.58666992 -0.08764648 C24.56872559 -0.06877136 24.56872559 -0.06877136 27.79333496 0.30354309 C30.12049003 3.7942757 30.04264112 5.14675842 30.04057312 9.26950073 C30.04476761 10.51602921 30.0489621 11.76255768 30.05328369 13.04685974 C30.04780016 14.4306801 30.04211718 15.81449968 30.03625488 17.19831848 C30.03732765 18.65362636 30.03926626 20.10893381 30.04200745 21.5642395 C30.04685932 25.51865758 30.03919615 29.472963 30.0290544 33.42736745 C30.02028059 37.56109444 30.02203121 41.69481784 30.02241516 45.82855225 C30.02147829 52.76986073 30.01279072 59.71112552 29.99914551 66.65242004 C29.98341357 74.68506852 29.97814761 82.71766917 29.97888106 90.75033194 C29.97949077 98.46945045 29.97439094 106.18855334 29.96608925 113.90766716 C29.96255285 117.19670674 29.96072549 120.48574079 29.96019554 123.77478218 C29.9591932 127.6448041 29.95310547 131.51478563 29.9430294 135.38479424 C29.94010134 136.80784228 29.93887965 138.23089498 29.93945694 139.65394592 C29.93994546 141.59082467 29.93368973 143.52770167 29.92704773 145.46456909 C29.92537189 146.55023194 29.92369604 147.63589479 29.92196941 148.75445652 C29.79333496 151.30354309 29.79333496 151.30354309 28.79333496 153.30354309 C23.3928736 155.10369688 17.56921136 154.48821482 11.91833496 154.49104309 C10.6382959 154.50328918 9.35825684 154.51553528 8.03942871 154.52815247 C6.18897949 154.53105286 6.18897949 154.53105286 4.30114746 154.53401184 C3.17337891 154.53812073 2.04561035 154.54222961 0.88366699 154.54646301 C-2.23497976 154.30131737 -4.3554385 153.52075818 -7.20666504 152.30354309 C-7.25333465 132.78052409 -7.28862911 113.25751637 -7.31028938 93.7344532 C-7.32061283 84.67006188 -7.3346935 75.60570517 -7.35754395 66.54133606 C-7.3774452 58.6431116 -7.3903737 50.74491219 -7.39484203 42.84666336 C-7.39745496 38.66254124 -7.40361851 34.47849082 -7.41812515 30.29439163 C-7.43165757 26.35955926 -7.43589653 22.42482841 -7.4328804 18.48997498 C-7.43343252 17.04273299 -7.43743577 15.59548776 -7.44507599 14.14826584 C-7.45496884 12.17841268 -7.45145579 10.20850555 -7.44717407 8.2386322 C-7.44901766 7.13432421 -7.45086124 6.03001621 -7.4527607 4.89224434 C-6.98333006 -0.04573664 -4.36108359 0.06355493 0 0 Z " fill="#FCFBFB" transform="translate(728.2066650390625,198.6964569091797)"/>
<path d="M0 0 C2.62462244 -0.26697888 5.01065933 -0.34832984 7.6328125 -0.29296875 C8.76056595 -0.28660149 8.76056595 -0.28660149 9.91110229 -0.28010559 C12.31609685 -0.2632917 14.72025809 -0.22563624 17.125 -0.1875 C18.75389416 -0.17245659 20.38280144 -0.15876758 22.01171875 -0.14648438 C26.00813434 -0.11337954 30.00392582 -0.06158009 34 0 C35.04893395 3.14680185 35.12831567 5.35207386 35.13371277 8.65551758 C35.13797775 9.83328766 35.14224274 11.01105774 35.14663696 12.22451782 C35.14618378 13.51812225 35.14573059 14.81172668 35.14526367 16.14453125 C35.14825551 17.51939994 35.1516581 18.89426778 35.15544128 20.26913452 C35.16428163 24.00458085 35.16661937 27.74000428 35.16725707 31.47546005 C35.1682061 34.5919319 35.17188423 37.70839841 35.17542917 40.8248682 C35.18357339 48.17524041 35.18601338 55.52560036 35.18530273 62.87597656 C35.18470152 70.4644185 35.19526219 78.05278945 35.2110464 85.64121342 C35.22410873 92.15252296 35.2294872 98.66380925 35.22884732 105.1751318 C35.22859201 109.06580538 35.23146182 112.95641585 35.24202538 116.84707642 C35.25168475 120.50454244 35.2518005 124.16188471 35.24450874 127.81935501 C35.24295951 129.8047368 35.25132417 131.79011852 35.25994873 133.77548218 C35.25575424 134.95325226 35.25155975 136.13102234 35.24723816 137.34448242 C35.24778293 138.37022873 35.24832769 139.39597504 35.24888897 140.45280457 C35 143 35 143 33 146 C30.08251953 146.35644531 30.08251953 146.35644531 26.3828125 146.328125 C25.72924774 146.32625183 25.07568298 146.32437866 24.40231323 146.32244873 C23.0186453 146.31572338 21.63499653 146.30179909 20.25146484 146.28125 C18.14011837 146.25022218 16.02952017 146.24029109 13.91796875 146.234375 C2.07530913 146.1535859 2.07530913 146.1535859 -1 145 C-2.31588579 142.36822842 -2.1289001 140.41311085 -2.13371277 137.46473694 C-2.13797775 136.28834152 -2.14224274 135.11194611 -2.14663696 133.89990234 C-2.14618378 132.60270264 -2.14573059 131.30550293 -2.14526367 129.96899414 C-2.14825458 128.59427295 -2.15165695 127.21955261 -2.15544128 125.84483337 C-2.16429223 122.10519574 -2.16661985 118.36558098 -2.16725707 114.62593389 C-2.16820533 111.50702688 -2.17188265 108.38812524 -2.17542917 105.26922029 C-2.1835778 97.91263174 -2.18601302 90.55605543 -2.18530273 83.19946289 C-2.18470175 75.60365734 -2.1952568 68.00792277 -2.2110464 60.41213518 C-2.2241092 53.89659956 -2.22948717 47.38108716 -2.22884732 40.86553854 C-2.22859198 36.97149662 -2.23146343 33.07751776 -2.24202538 29.18348885 C-2.25168528 25.52193224 -2.25180013 21.86049925 -2.24450874 18.19893837 C-2.24295948 16.21116159 -2.25132424 14.22338489 -2.25994873 12.23562622 C-2.25575424 11.05641098 -2.25155975 9.87719574 -2.24723816 8.6622467 C-2.24778293 7.63520158 -2.24832769 6.60815645 -2.24888897 5.54998875 C-2 3 -2 3 0 0 Z " fill="#FDFDFC" transform="translate(1861,207)"/>
<path d="M0 0 C0.74580322 0.00008057 1.49160645 0.00016113 2.26000977 0.00024414 C4.52509576 -0.00193406 6.78968831 -0.02006207 9.0546875 -0.0390625 C10.49544104 -0.04199805 11.9361969 -0.04398176 13.37695312 -0.04492188 C15.34692261 -0.05108521 15.34692261 -0.05108521 17.35668945 -0.05737305 C20.56202221 0.1732848 22.00361241 0.68339248 24.73242188 2.18554688 C24.80247014 16.73668541 24.85519011 31.28779785 24.88785839 45.83907032 C24.90333429 52.59532618 24.92443745 59.35147735 24.95874023 66.10766602 C24.99180923 72.62395017 25.00925982 79.14016626 25.0170536 85.65653038 C25.02261001 88.14650882 25.03345983 90.63648109 25.04961205 93.12641335 C25.07129056 96.60564834 25.07439277 100.08442938 25.07299805 103.5637207 C25.08378387 104.60021759 25.0945697 105.63671448 25.10568237 106.70462036 C25.09949638 108.12438423 25.09949638 108.12438423 25.09318542 109.5728302 C25.0959508 110.39599133 25.09871618 111.21915247 25.10156536 112.06725788 C24.63985154 114.7167515 23.87494591 115.59818173 21.73242188 117.18554688 C18.70141602 117.55786133 18.70141602 117.55786133 15.01757812 117.54882812 C14.36542831 117.54932663 13.7132785 117.54982513 13.04136658 117.55033875 C11.66369578 117.54800114 10.28602048 117.53829091 8.90844727 117.52172852 C6.80576119 117.49816833 4.70434678 117.50116513 2.6015625 117.5078125 C-8.09024111 117.46331957 -8.09024111 117.46331957 -12.26757812 115.18554688 C-12.29090798 100.33906738 -12.30855773 85.49259031 -12.3193903 70.64609623 C-12.32455307 63.7530716 -12.33159541 56.86005835 -12.34301758 49.96704102 C-12.35402513 43.32108523 -12.35985435 36.67513819 -12.36245537 30.0291729 C-12.36431014 27.48731741 -12.36793173 24.94546261 -12.37330818 22.40361214 C-12.3805148 18.85703226 -12.38156923 15.31050198 -12.38110352 11.76391602 C-12.38469879 10.7015271 -12.38829407 9.63913818 -12.39199829 8.54455566 C-12.39062363 7.58396744 -12.38924896 6.62337921 -12.38783264 5.63368225 C-12.38875443 4.79392884 -12.38967623 3.95417543 -12.39062595 3.08897495 C-12.05428687 -2.11385759 -3.9951022 0.01365966 0 0 Z " fill="#FCFBFB" transform="translate(1334.267578125,235.814453125)"/>
<path d="M0 0 C2.4390049 -0.3719368 2.4390049 -0.3719368 5.5741272 -0.36749268 C6.7612178 -0.37306183 7.94830841 -0.37863098 9.17137146 -0.3843689 C10.48203079 -0.37515411 11.79269012 -0.36593933 13.14306641 -0.35644531 C14.53344349 -0.35723617 15.92382035 -0.35933339 17.31419373 -0.36264038 C21.11273562 -0.36779918 24.91100877 -0.35416274 28.70950747 -0.33711338 C32.72962028 -0.32200741 36.7497305 -0.32324865 40.76986694 -0.32244873 C47.57123316 -0.31874349 54.37249933 -0.30376005 61.17382812 -0.28125 C69.74404346 -0.2529325 78.31417684 -0.24212942 86.88443375 -0.23744965 C123.59968414 -0.21724079 160.29627681 -0.01425184 197 1 C197.08090971 2.62418745 197.13914995 4.24951745 197.1875 5.875 C197.22230469 6.77992188 197.25710938 7.68484375 197.29296875 8.6171875 C197.19628906 9.40351563 197.09960938 10.18984375 197 11 C193.68374387 13.21083742 192.68563453 13.24949227 188.82847595 13.24723816 C187.75543213 13.25143265 186.68238831 13.25562714 185.576828 13.25994873 C184.39768326 13.25432922 183.21853851 13.24870972 182.00366211 13.24291992 C180.13839371 13.24576744 180.13839371 13.24576744 178.23544312 13.24867249 C174.80406097 13.25175439 171.37291745 13.24582027 167.94156337 13.23571944 C164.29181896 13.22686466 160.64207779 13.22869851 156.99232483 13.2290802 C150.80386246 13.22814019 144.6154487 13.21944845 138.42700195 13.20581055 C132.19912753 13.19212936 125.97129789 13.18477728 119.7434082 13.18530273 C79.48478234 13.18841757 39.25045749 12.85996895 -1 12 C-1.2226746 10.56465159 -1.42761906 9.12654475 -1.625 7.6875 C-1.74101562 6.88699219 -1.85703125 6.08648437 -1.9765625 5.26171875 C-2 3 -2 3 0 0 Z " fill="#F5F3F4" transform="translate(207,256)"/>
<path d="M0 0 C2.75 2.875 2.75 2.875 5 6 C5.598125 6.7425 6.19625 7.485 6.8125 8.25 C9.11242337 13.57613833 8.76540725 19.03180993 6.6875 24.375 C6.130625 25.24125 5.57375 26.1075 5 27 C4.54625 27.721875 4.0925 28.44375 3.625 29.1875 C0.01817288 33.21049948 -5.25582638 35.64242586 -10.578125 36.3359375 C-17.29186697 36.43409162 -22.12209364 35.25099018 -28 32 C-28 31.34 -28 30.68 -28 30 C-28.66 30 -29.32 30 -30 30 C-30 29.34 -30 28.68 -30 28 C-30.66 28 -31.32 28 -32 28 C-35.39357476 22.90963786 -35.76544145 17.00424202 -35 11 C-33.90406033 8.1093993 -32.56360805 5.68745133 -31 3 C-30.34 3 -29.68 3 -29 3 C-29 2.34 -29 1.68 -29 1 C-20.84387826 -4.66397343 -8.48171873 -5.30107421 0 0 Z " fill="#FAFAFA" transform="translate(1354,190)"/>
<path d="M0 0 C0.84575089 0.00202423 1.69150177 0.00404846 2.56288147 0.00613403 C3.89205345 0.00350555 3.89205345 0.00350555 5.24807739 0.00082397 C8.19222442 -0.00359583 11.13631191 -0.0006561 14.08045959 0.00271606 C16.11687736 0.00204306 18.15329504 0.00107307 20.18971252 -0.00018311 C24.46368675 -0.00166025 28.73764013 0.00049502 33.01161194 0.00515747 C38.50329498 0.01085477 43.99492916 0.00757585 49.48661041 0.00158501 C53.69348014 -0.00202015 57.90033818 -0.00088223 62.10720825 0.0017128 C64.13271083 0.00238219 66.15821446 0.00155321 68.18371582 -0.00076675 C71.00935189 -0.00329254 73.83490766 0.00054626 76.66053772 0.00613403 C77.5062886 0.0041098 78.35203949 0.00208557 79.22341919 0 C84.99744719 0.02126616 84.99744719 0.02126616 86.11170959 1.13552856 C86.20994897 2.79981908 86.2414459 4.46834787 86.23670959 6.13552856 C86.24057678 7.49677856 86.24057678 7.49677856 86.24452209 8.88552856 C86.11170959 11.13552856 86.11170959 11.13552856 85.11170959 12.13552856 C82.22093886 12.21279091 79.35370791 12.22585407 76.46327209 12.19802856 C74.59063254 12.18971499 72.71799254 12.18150015 70.84535217 12.17337036 C69.84952118 12.16719696 68.85369019 12.16102356 67.8276825 12.15466309 C54.07691113 12.06953959 40.33805395 12.04089299 26.59217834 12.45974731 C25.10663452 12.50363083 25.10663452 12.50363083 23.59107971 12.54840088 C18.83794761 12.69218889 14.08643659 12.85574175 9.33485413 13.04373169 C7.62116515 13.09954678 5.90746141 13.15491068 4.19374084 13.20974731 C3.02502693 13.26578377 3.02502693 13.26578377 1.83270264 13.32295227 C-3.40015822 13.4713784 -3.40015822 13.4713784 -5.87290955 11.77005005 C-7.23165123 9.58279937 -7.22160193 8.06819231 -7.13829041 5.51052856 C-7.12282166 4.71388794 -7.10735291 3.91724731 -7.09141541 3.09646606 C-6.65234227 -1.14227844 -3.58558277 0.01320596 0 0 Z " fill="#F7F5F6" transform="translate(264.88829040527344,275.8644714355469)"/>
<path d="M0 0 C30.03 0 60.06 0 91 0 C92 7 92 7 91 11 C60.97 11 30.94 11 0 11 C-1 7 -1 7 0 0 Z " fill="#F2EFF0" transform="translate(259,237)"/>
<path d="M0 0 C0.9796875 -0.01417969 1.959375 -0.02835937 2.96875 -0.04296875 C5.5 0.1875 5.5 0.1875 7.5 2.1875 C7.77629475 5.86774605 7.5859315 9.49244557 7.5 13.1875 C2.55 13.1875 -2.4 13.1875 -7.5 13.1875 C-7.5 9.2275 -7.5 5.2675 -7.5 1.1875 C-4.89820337 -0.11339831 -2.9030812 0.01909922 0 0 Z " fill="#EBE8E9" transform="translate(304.5,346.8125)"/>
<path d="M0 0 C0.9796875 0.00515625 1.959375 0.0103125 2.96875 0.015625 C3.9484375 0.01046875 4.928125 0.0053125 5.9375 0 C8.46875 0.265625 8.46875 0.265625 10.46875 2.265625 C10.6640625 4.4296875 10.6640625 4.4296875 10.59375 6.890625 C10.57570313 7.70789063 10.55765625 8.52515625 10.5390625 9.3671875 C10.50425781 10.30691406 10.50425781 10.30691406 10.46875 11.265625 C-0.08933656 12.59819903 -0.08933656 12.59819903 -4.53125 11.265625 C-4.58524736 9.80769616 -4.62404177 8.34919788 -4.65625 6.890625 C-4.69105469 5.67246094 -4.69105469 5.67246094 -4.7265625 4.4296875 C-4.42442506 1.0820047 -3.2559263 0.34167128 0 0 Z " fill="#ECEBEB" transform="translate(301.53125,163.734375)"/>
<path d="M0 0 C0.33 0 0.66 0 1 0 C1 9.9 1 19.8 1 30 C-0.32 30.33 -1.64 30.66 -3 31 C-2.67 32.32 -2.34 33.64 -2 35 C-4.31 35.66 -6.62 36.32 -9 37 C-9.73080266 35.02253397 -10.39421747 33.01927511 -11 31 C-10.67 30.34 -10.34 29.68 -10 29 C-6.7 29 -3.4 29 0 29 C0 19.43 0 9.86 0 0 Z " fill="#DAD5D7" transform="translate(319,156)"/>
<path d="M0 0 C0.33 1.32 0.66 2.64 1 4 C14.53 3.67 28.06 3.34 42 3 C42.33 2.34 42.66 1.68 43 1 C43.66 1 44.32 1 45 1 C45 1.66 45 2.32 45 3 C45.66 3.33 46.32 3.66 47 4 C46.01 4.66 45.02 5.32 44 6 C43.34 6.99 42.68 7.98 42 9 C41.505 7.515 41.505 7.515 41 6 C20.705 5.505 20.705 5.505 0 5 C0 3.35 0 1.7 0 0 Z " fill="#E3E0E1" transform="translate(1495,279)"/>
<path d="M0 0 C0.99 0.33 1.98 0.66 3 1 C4.87277349 1.05955189 6.74767229 1.06079503 8.62109375 1.02734375 C10.27141602 1.00897461 10.27141602 1.00897461 11.95507812 0.99023438 C14.27284988 0.95513632 16.59056524 0.91608686 18.90820312 0.87304688 C20.56045898 0.85661133 20.56045898 0.85661133 22.24609375 0.83984375 C23.75707642 0.81458618 23.75707642 0.81458618 25.29858398 0.78881836 C28.04916648 1.00384356 29.6589861 1.58716902 32 3 C28.81979387 4.06006871 26.53535229 4.12919606 23.1953125 4.1328125 C22.05449219 4.13410156 20.91367187 4.13539063 19.73828125 4.13671875 C17.94970703 4.13091797 17.94970703 4.13091797 16.125 4.125 C14.34802734 4.13080078 14.34802734 4.13080078 12.53515625 4.13671875 C10.82005859 4.13478516 10.82005859 4.13478516 9.0703125 4.1328125 C8.02633301 4.13168457 6.98235352 4.13055664 5.90673828 4.12939453 C3.16335607 4.00727186 0.67060772 3.6192268 -2 3 C-1.34 2.01 -0.68 1.02 0 0 Z " fill="#FCF6F8" transform="translate(301,244)"/>
<path d="M0 0 C2.31 0.66 4.62 1.32 7 2 C5.02 2.99 5.02 2.99 3 4 C3 6.64 3 9.28 3 12 C2.67 12 2.34 12 2 12 C1.67 20.25 1.34 28.5 1 37 C0.34 36.67 -0.32 36.34 -1 36 C-0.67 24.12 -0.34 12.24 0 0 Z " fill="#E4E0E1" transform="translate(337,172)"/>
<path d="M0 0 C0.99 0.33 1.98 0.66 3 1 C2.67 1.66 2.34 2.32 2 3 C1.84824451 4.59262066 1.75099675 6.19064856 1.68359375 7.7890625 C1.64169922 8.73007813 1.59980469 9.67109375 1.55664062 10.640625 C1.49766602 12.11789063 1.49766602 12.11789063 1.4375 13.625 C1.39431641 14.61757812 1.35113281 15.61015625 1.30664062 16.6328125 C1.20038931 19.08839838 1.09835036 21.54408703 1 24 C0.34 24 -0.32 24 -1 24 C-1.02893932 20.37501666 -1.04677792 16.75006287 -1.0625 13.125 C-1.07087891 12.09246094 -1.07925781 11.05992187 -1.08789062 9.99609375 C-1.09111328 9.00996094 -1.09433594 8.02382812 -1.09765625 7.0078125 C-1.10289307 6.09660645 -1.10812988 5.18540039 -1.11352539 4.24658203 C-1 2 -1 2 0 0 Z M3 0 C5 1 5 1 5 1 Z " fill="#DCD8DA" transform="translate(1389,208)"/>
<path d="M0 0 C0.66 0.33 1.32 0.66 2 1 C-2.72087638 7.0696982 -7.81396835 11.49560802 -14 16 C-12.51261554 12.63421763 -10.57625007 10.17087508 -8.125 7.4375 C-7.44695313 6.67308594 -6.76890625 5.90867188 -6.0703125 5.12109375 C-4.15907769 3.16297959 -2.23535632 1.56875903 0 0 Z " fill="#E9E7E8" transform="translate(798,244)"/>
<path d="M0 0 C0.66 0.33 1.32 0.66 2 1 C1.0615625 1.91523438 0.123125 2.83046875 -0.84375 3.7734375 C-2.06276041 4.97369391 -3.28149629 6.17422919 -4.5 7.375 C-5.12003906 7.97828125 -5.74007812 8.5815625 -6.37890625 9.203125 C-6.96542969 9.78320312 -7.55195312 10.36328125 -8.15625 10.9609375 C-8.97319336 11.76217041 -8.97319336 11.76217041 -9.80664062 12.57958984 C-11.21441999 13.94602023 -11.21441999 13.94602023 -11 16 C-12.29233607 17.37310707 -13.62437146 18.71034824 -15 20 C-15.66 19.67 -16.32 19.34 -17 19 C-16.21718695 17.66144944 -15.42348123 16.32926356 -14.625 15 C-14.18414063 14.2575 -13.74328125 13.515 -13.2890625 12.75 C-12.86367188 12.1725 -12.43828125 11.595 -12 11 C-11.34 11 -10.68 11 -10 11 C-10 10.34 -10 9.68 -10 9 C-8.125 6.875 -8.125 6.875 -6 5 C-5.34 5 -4.68 5 -4 5 C-4 4.34 -4 3.68 -4 3 C-2 1.375 -2 1.375 0 0 Z " fill="#E7E4E5" transform="translate(586,219)"/>
<path d="M0 0 C0.66 0.66 1.32 1.32 2 2 C0.02 2.99 0.02 2.99 -2 4 C-1.34 2.68 -0.68 1.36 0 0 Z M-3 4 C-2.01 4.66 -1.02 5.32 0 6 C-1.0828125 6.5878125 -1.0828125 6.5878125 -2.1875 7.1875 C-5.227326 9.14649898 -7.52127727 11.37963597 -10 14 C-10.99 13.67 -11.98 13.34 -13 13 C-9.83047153 9.73991357 -6.60062011 6.77762123 -3 4 Z " fill="#EEECEC" transform="translate(375,316)"/>
<path d="M0 0 C0.66 0.33 1.32 0.66 2 1 C1.278125 1.75925781 0.55625 2.51851562 -0.1875 3.30078125 C-1.1253898 4.30432334 -2.06286856 5.30824969 -3 6.3125 C-3.47695312 6.81201172 -3.95390625 7.31152344 -4.4453125 7.82617188 C-7.41934329 10.88595524 -7.41934329 10.88595524 -8 15 C-8.99 15 -9.98 15 -11 15 C-9.125 10.25 -9.125 10.25 -8 8 C-7.34 8 -6.68 8 -6 8 C-5.7525 7.4225 -5.505 6.845 -5.25 6.25 C-3.83316683 3.6997003 -2.12372463 1.98214299 0 0 Z " fill="#E1DBDC" transform="translate(1478,248)"/>
<path d="M0 0 C3.98175544 2.10148204 6.35039045 4.36905358 9 8 C5.41087588 8 4.89142971 7.33563446 2.3125 5 C1.68988281 4.443125 1.06726562 3.88625 0.42578125 3.3125 C-0.04472656 2.879375 -0.51523438 2.44625 -1 2 C-0.67 1.34 -0.34 0.68 0 0 Z " fill="#F1F0F0" transform="translate(1146,245)"/>
<path d="M0 0 C-0.66 1.32 -1.32 2.64 -2 4 C-7.75 3.25 -7.75 3.25 -10 1 C-6.42181037 -1.33958553 -4.07775191 -0.9267618 0 0 Z " fill="#F5F2F1" transform="translate(1623,347)"/>
<path d="M0 0 C2.6875 0.875 2.6875 0.875 5 2 C4.1875 3.9375 4.1875 3.9375 3 6 C2.01 6.33 1.02 6.66 0 7 C0 6.01 0 5.02 0 4 C-0.99 4.495 -0.99 4.495 -2 5 C-2.33 4.01 -2.66 3.02 -3 2 C-2.01 1.34 -1.02 0.68 0 0 Z " fill="#F4F2F3" transform="translate(1609,241)"/>
<path d="M0 0 C-3.63195496 2.42130331 -5.38349348 2.21022785 -9.6875 2.125 C-10.86699219 2.10695312 -12.04648437 2.08890625 -13.26171875 2.0703125 C-14.16535156 2.04710937 -15.06898438 2.02390625 -16 2 C-11.08798886 -1.27467409 -5.61637189 -1.57960459 0 0 Z " fill="#D3CDCF" transform="translate(333,246)"/>
<path d="M0 0 C2.31 0.66 4.62 1.32 7 2 C5.02 2.99 5.02 2.99 3 4 C3 6.64 3 9.28 3 12 C2.67 12 2.34 12 2 12 C1.855625 10.7625 1.71125 9.525 1.5625 8.25 C1.21311498 5.43495501 0.79620634 2.7298503 0 0 Z " fill="#EFEBED" transform="translate(337,172)"/>
<path d="M0 0 C1.65 0.33 3.3 0.66 5 1 C3.75023244 4.65316671 3.32901247 5.78065836 0 8 C-0.98120464 4.94736336 -0.98120464 3.05263664 0 0 Z " fill="#FEFCFD" transform="translate(298,349)"/>
<path d="M0 0 C1.423125 0.2784375 1.423125 0.2784375 2.875 0.5625 C5.89868793 1.28686632 5.89868793 1.28686632 8 0 C8.66 0.66 9.32 1.32 10 2 C9.67 2.66 9.34 3.32 9 4 C9.99 4.33 10.98 4.66 12 5 C7.43545749 4.45660208 4.0271824 3.20536179 0 1 C0 0.67 0 0.34 0 0 Z " fill="#E9E7E6" transform="translate(1403,345)"/>
<path d="M0 0 C0.99 1.32 1.98 2.64 3 4 C-1.75 8.875 -1.75 8.875 -4 10 C-2.66666667 6.66666667 -1.33333333 3.33333333 0 0 Z " fill="#E6DDDE" transform="translate(132,174)"/>
<path d="M0 0 C0 3 0 3 -1 6 C-3.27208411 7.51472274 -5.56019185 8.78009593 -8 10 C-6.34908222 5.70761377 -3.26245434 3.1206085 0 0 Z " fill="#DAD4D8" transform="translate(165,128)"/>
<path d="M0 0 C0.33 0.66 0.66 1.32 1 2 C1.66 2.33 2.32 2.66 3 3 C2.34 3 1.68 3 1 3 C0.67 3.66 0.34 4.32 0 5 C-0.99 5 -1.98 5 -3 5 C-3.66 3.68 -4.32 2.36 -5 1 C-3 0 -3 0 0 0 Z " fill="#ECEBEC" transform="translate(1475,330)"/>
<path d="M0 0 C2.97 0.495 2.97 0.495 6 1 C5.01 1.495 5.01 1.495 4 2 C4 2.66 4 3.32 4 4 C3.34 4 2.68 4 2 4 C2 4.66 2 5.32 2 6 C0.68 5.34 -0.64 4.68 -2 4 C-1.34 4 -0.68 4 0 4 C0 2.68 0 1.36 0 0 Z " fill="#EFEFED" transform="translate(1268,209)"/>
<path d="M0 0 C1.485 0.99 1.485 0.99 3 2 C3.66 2.33 4.32 2.66 5 3 C5.625 5.5625 5.625 5.5625 6 8 C5.34 8 4.68 8 4 8 C4 7.34 4 6.68 4 6 C3.0409375 5.566875 3.0409375 5.566875 2.0625 5.125 C0 4 0 4 -1 2 C-0.67 1.34 -0.34 0.68 0 0 Z " fill="#E8E6E7" transform="translate(176,403)"/>
<path d="M0 0 C0.66 0 1.32 0 2 0 C2.66 1.98 3.32 3.96 4 6 C2.68 6.33 1.36 6.66 0 7 C-0.66 5.68 -1.32 4.36 -2 3 C-1.34 3 -0.68 3 0 3 C0 2.01 0 1.02 0 0 Z " fill="#F7F6F7" transform="translate(303,165)"/>
<path d="M0 0 C0.99 0 1.98 0 3 0 C3.33 1.65 3.66 3.3 4 5 C3.34 4.67 2.68 4.34 2 4 C1.34 4.185625 0.68 4.37125 0 4.5625 C-0.66 4.706875 -1.32 4.85125 -2 5 C-2.66 4.34 -3.32 3.68 -4 3 C-2.68 2.67 -1.36 2.34 0 2 C0 1.34 0 0.68 0 0 Z " fill="#EEECED" transform="translate(200,99)"/>
<path d="M0 0 C-0.66 0.66 -1.32 1.32 -2 2 C-1.67 2.99 -1.34 3.98 -1 5 C-3 4 -5 3 -7 2 C-7 1.34 -7 0.68 -7 0 C-3.86650268 -1.04449911 -3.01031744 -0.93423645 0 0 Z " fill="#E8E6E7" transform="translate(190,411)"/>
<path d="M0 0 C0.99 0.66 1.98 1.32 3 2 C2.67 3.32 2.34 4.64 2 6 C0.35 5.67 -1.3 5.34 -3 5 C-2.01 3.35 -1.02 1.7 0 0 Z " fill="#F4F3F2" transform="translate(935,345)"/>
<path d="M0 0 C1.32 0.66 2.64 1.32 4 2 C3.67 3.65 3.34 5.3 3 7 C1.68 6.01 0.36 5.02 -1 4 C-0.67 2.68 -0.34 1.36 0 0 Z " fill="#EFECED" transform="translate(787,330)"/>
<path d="M0 0 C0.66 0.33 1.32 0.66 2 1 C1.01 2.485 1.01 2.485 0 4 C-0.70812814 6.32108669 -1.38024152 8.65377147 -2 11 C-3.0013988 7.99580359 -3.51421457 5.12290635 -4 2 C-2.68 2 -1.36 2 0 2 C0 1.34 0 0.68 0 0 Z " fill="#E2DCDC" transform="translate(1744,327)"/>
<path d="M0 0 C1.32 0.66 2.64 1.32 4 2 C4 2.66 4 3.32 4 4 C3.38125 4.103125 2.7625 4.20625 2.125 4.3125 C-0.36526484 4.87525373 -0.36526484 4.87525373 -2 8 C-1.125 2.25 -1.125 2.25 0 0 Z " fill="#E3E0E1" transform="translate(1464,267)"/>
<path d="M0 0 C1.32 0 2.64 0 4 0 C3.67 0.99 3.34 1.98 3 3 C2.34 3 1.68 3 1 3 C1 4.32 1 5.64 1 7 C0.34 7 -0.32 7 -1 7 C-1.04254356 5.00045254 -1.04080783 2.99958364 -1 1 C-0.67 0.67 -0.34 0.34 0 0 Z " fill="#D9D6D7" transform="translate(259,276)"/>
<path d="M0 0 C0.598125 0.185625 1.19625 0.37125 1.8125 0.5625 C4.16408762 1.22093687 4.16408762 1.22093687 7 0 C7 1.65 7 3.3 7 5 C3.34683329 3.75023244 2.21934164 3.32901247 0 0 Z " fill="#E4E2E3" transform="translate(646,241)"/>
<path d="M0 0 C0.99 0 1.98 0 3 0 C2.34 2.31 1.68 4.62 1 7 C-1 4 -1 4 -0.625 1.8125 C-0.41875 1.214375 -0.2125 0.61625 0 0 Z " fill="#EAEAE8" transform="translate(1298,323)"/>
<path d="M0 0 C0.66 0.66 1.32 1.32 2 2 C1.625 4.625 1.625 4.625 1 7 C0.01 7.33 -0.98 7.66 -2 8 C-1.47731534 5.23723823 -0.89130413 2.6739124 0 0 Z " fill="#EAE5E4" transform="translate(1821,286)"/>
<path d="M0 0 C2 2 2 2 2 5 C1.34 5 0.68 5 0 5 C-0.33 5.99 -0.66 6.98 -1 8 C-1.93065133 5.39417629 -2.14917407 4.35801776 -1.0625 1.75 C-0.711875 1.1725 -0.36125 0.595 0 0 Z " fill="#F1EEED" transform="translate(483,191)"/>
<path d="M0 0 C1.32 0.33 2.64 0.66 4 1 C3.67 1.99 3.34 2.98 3 4 C2.34 3.67 1.68 3.34 1 3 C0.67 3.66 0.34 4.32 0 5 C-0.66 4.67 -1.32 4.34 -2 4 C-1.34 2.68 -0.68 1.36 0 0 Z " fill="#E8E5E6" transform="translate(299,164)"/>
<path d="" fill="#FFFFFF" transform="translate(0,0)"/>
<path d="M0 0 C2 1 2 1 2 1 Z " fill="#9F9F9F" transform="translate(270,214)"/>
<path d="" fill="#808080" transform="translate(0,0)"/>
</svg>
